<svg width="1000" height="350" viewBox="0 0 1000 350" fill="none" xmlns="http://www.w3.org/2000/svg">
<g clip-path="url(#clip0_1_2)">
<rect width="1000" height="350" rx="10" fill="#6C60CB"/>
<rect width="1000" height="350" fill="url(#paint0_linear_1_2)"/>
<path d="M31.0455 77V30.4545H49.4091C52.9242 30.4545 55.9242 31.0833 58.4091 32.3409C60.9091 33.5833 62.8106 35.3485 64.1136 37.6364C65.4318 39.9091 66.0909 42.5833 66.0909 45.6591C66.0909 48.75 65.4242 51.4091 64.0909 53.6364C62.7576 55.8485 60.8258 57.5455 58.2955 58.7273C55.7803 59.9091 52.7348 60.5 49.1591 60.5H36.8636V52.5909H47.5682C49.447 52.5909 51.0076 52.3333 52.25 51.8182C53.4924 51.303 54.4167 50.5303 55.0227 49.5C55.6439 48.4697 55.9545 47.1894 55.9545 45.6591C55.9545 44.1136 55.6439 42.8106 55.0227 41.75C54.4167 40.6894 53.4848 39.8864 52.2273 39.3409C50.9848 38.7803 49.4167 38.5 47.5227 38.5H40.8864V77H31.0455ZM56.1818 55.8182L67.75 77H56.8864L45.5682 55.8182H56.1818ZM82.5455 56.8182V77H72.8636V30.4545H82.2727V48.25H82.6818C83.4697 46.1894 84.7424 44.5758 86.5 43.4091C88.2576 42.2273 90.4621 41.6364 93.1136 41.6364C95.5379 41.6364 97.6515 42.1667 99.4545 43.2273C101.273 44.2727 102.682 45.7803 103.682 47.75C104.697 49.7045 105.197 52.0455 105.182 54.7727V77H95.5V56.5C95.5152 54.3485 94.9697 52.6742 93.8636 51.4773C92.7727 50.2803 91.2424 49.6818 89.2727 49.6818C87.9545 49.6818 86.7879 49.9621 85.7727 50.5227C84.7727 51.0833 83.9848 51.9015 83.4091 52.9773C82.8485 54.0379 82.5606 55.3182 82.5455 56.8182ZM117.528 90.0909C116.301 90.0909 115.15 89.9924 114.074 89.7955C113.013 89.6136 112.134 89.3788 111.438 89.0909L113.619 81.8636C114.756 82.2121 115.778 82.4015 116.688 82.4318C117.612 82.4621 118.407 82.25 119.074 81.7955C119.756 81.3409 120.309 80.5682 120.733 79.4773L121.301 78L108.778 42.0909H118.96L126.188 67.7273H126.551L133.847 42.0909H144.097L130.528 80.7727C129.877 82.6515 128.991 84.2879 127.869 85.6818C126.763 87.0909 125.362 88.1742 123.665 88.9318C121.968 89.7045 119.922 90.0909 117.528 90.0909ZM167.619 42.0909V49.3636H146.597V42.0909H167.619ZM151.369 33.7273H161.051V66.2727C161.051 67.1667 161.188 67.8636 161.46 68.3636C161.733 68.8485 162.112 69.1894 162.597 69.3864C163.097 69.5833 163.672 69.6818 164.324 69.6818C164.778 69.6818 165.233 69.6439 165.688 69.5682C166.142 69.4773 166.491 69.4091 166.733 69.3636L168.256 76.5682C167.771 76.7197 167.089 76.8939 166.21 77.0909C165.331 77.303 164.263 77.4318 163.006 77.4773C160.672 77.5682 158.627 77.2576 156.869 76.5455C155.127 75.8333 153.771 74.7273 152.801 73.2273C151.831 71.7273 151.354 69.8333 151.369 67.5455V33.7273ZM184.358 56.8182V77H174.676V30.4545H184.085V48.25H184.494C185.282 46.1894 186.555 44.5758 188.312 43.4091C190.07 42.2273 192.275 41.6364 194.926 41.6364C197.35 41.6364 199.464 42.1667 201.267 43.2273C203.085 44.2727 204.494 45.7803 205.494 47.75C206.509 49.7045 207.009 52.0455 206.994 54.7727V77H197.312V56.5C197.328 54.3485 196.782 52.6742 195.676 51.4773C194.585 50.2803 193.055 49.6818 191.085 49.6818C189.767 49.6818 188.6 49.9621 187.585 50.5227C186.585 51.0833 185.797 51.9015 185.222 52.9773C184.661 54.0379 184.373 55.3182 184.358 56.8182ZM214.614 77V42.0909H223.841V48.25H224.25C224.977 46.2045 226.189 44.5909 227.886 43.4091C229.583 42.2273 231.614 41.6364 233.977 41.6364C236.371 41.6364 238.409 42.2348 240.091 43.4318C241.773 44.6136 242.894 46.2197 243.455 48.25H243.818C244.53 46.25 245.818 44.6515 247.682 43.4545C249.561 42.2424 251.78 41.6364 254.341 41.6364C257.598 41.6364 260.242 42.6742 262.273 44.75C264.318 46.8106 265.341 49.7348 265.341 53.5227V77H255.682V55.4318C255.682 53.4924 255.167 52.0379 254.136 51.0682C253.106 50.0985 251.818 49.6136 250.273 49.6136C248.515 49.6136 247.144 50.1742 246.159 51.2955C245.174 52.4015 244.682 53.8636 244.682 55.6818V77H235.295V55.2273C235.295 53.5152 234.803 52.1515 233.818 51.1364C232.848 50.1212 231.568 49.6136 229.977 49.6136C228.902 49.6136 227.932 49.8864 227.068 50.4318C226.22 50.9621 225.545 51.7121 225.045 52.6818C224.545 53.6364 224.295 54.7576 224.295 56.0455V77H214.614ZM318.847 45.5C318.528 44.3939 318.081 43.4167 317.506 42.5682C316.93 41.7045 316.225 40.9773 315.392 40.3864C314.574 39.7803 313.634 39.3182 312.574 39C311.528 38.6818 310.369 38.5227 309.097 38.5227C306.718 38.5227 304.627 39.1136 302.824 40.2955C301.036 41.4773 299.642 43.197 298.642 45.4545C297.642 47.697 297.142 50.4394 297.142 53.6818C297.142 56.9242 297.634 59.6818 298.619 61.9545C299.604 64.2273 300.998 65.9621 302.801 67.1591C304.604 68.3409 306.733 68.9318 309.188 68.9318C311.415 68.9318 313.316 68.5379 314.892 67.75C316.483 66.947 317.695 65.8182 318.528 64.3636C319.377 62.9091 319.801 61.1894 319.801 59.2045L321.801 59.5H309.801V52.0909H329.278V57.9545C329.278 62.0455 328.415 65.5606 326.688 68.5C324.96 71.4242 322.581 73.6818 319.551 75.2727C316.521 76.8485 313.051 77.6364 309.142 77.6364C304.778 77.6364 300.945 76.6742 297.642 74.75C294.339 72.8106 291.763 70.0606 289.915 66.5C288.081 62.9242 287.165 58.6818 287.165 53.7727C287.165 50 287.71 46.6364 288.801 43.6818C289.907 40.7121 291.453 38.197 293.438 36.1364C295.422 34.0758 297.733 32.5076 300.369 31.4318C303.006 30.3561 305.862 29.8182 308.938 29.8182C311.574 29.8182 314.028 30.2045 316.301 30.9773C318.574 31.7348 320.589 32.8106 322.347 34.2045C324.119 35.5985 325.566 37.2576 326.688 39.1818C327.809 41.0909 328.528 43.197 328.847 45.5H318.847ZM346.443 77.6591C344.216 77.6591 342.231 77.2727 340.489 76.5C338.746 75.7121 337.367 74.553 336.352 73.0227C335.352 71.4773 334.852 69.553 334.852 67.25C334.852 65.3106 335.208 63.6818 335.92 62.3636C336.633 61.0455 337.602 59.9848 338.83 59.1818C340.057 58.3788 341.451 57.7727 343.011 57.3636C344.587 56.9545 346.239 56.6667 347.966 56.5C349.996 56.2879 351.633 56.0909 352.875 55.9091C354.117 55.7121 355.019 55.4242 355.58 55.0455C356.14 54.6667 356.42 54.1061 356.42 53.3636V53.2273C356.42 51.7879 355.966 50.6742 355.057 49.8864C354.163 49.0985 352.89 48.7045 351.239 48.7045C349.496 48.7045 348.11 49.0909 347.08 49.8636C346.049 50.6212 345.367 51.5758 345.034 52.7273L336.08 52C336.534 49.8788 337.428 48.0455 338.761 46.5C340.095 44.9394 341.814 43.7424 343.92 42.9091C346.042 42.0606 348.496 41.6364 351.284 41.6364C353.223 41.6364 355.08 41.8636 356.852 42.3182C358.64 42.7727 360.223 43.4773 361.602 44.4318C362.996 45.3864 364.095 46.6136 364.898 48.1136C365.701 49.5985 366.102 51.3788 366.102 53.4545V77H356.92V72.1591H356.648C356.087 73.25 355.337 74.2121 354.398 75.0455C353.458 75.8636 352.33 76.5076 351.011 76.9773C349.693 77.4318 348.17 77.6591 346.443 77.6591ZM349.216 70.9773C350.64 70.9773 351.898 70.697 352.989 70.1364C354.08 69.5606 354.936 68.7879 355.557 67.8182C356.178 66.8485 356.489 65.75 356.489 64.5227V60.8182C356.186 61.0152 355.769 61.197 355.239 61.3636C354.723 61.5152 354.14 61.6591 353.489 61.7955C352.837 61.9167 352.186 62.0303 351.534 62.1364C350.883 62.2273 350.292 62.3106 349.761 62.3864C348.625 62.553 347.633 62.8182 346.784 63.1818C345.936 63.5455 345.277 64.0379 344.807 64.6591C344.337 65.2652 344.102 66.0227 344.102 66.9318C344.102 68.25 344.58 69.2576 345.534 69.9545C346.504 70.6364 347.731 70.9773 349.216 70.9773ZM373.614 77V42.0909H382.841V48.25H383.25C383.977 46.2045 385.189 44.5909 386.886 43.4091C388.583 42.2273 390.614 41.6364 392.977 41.6364C395.371 41.6364 397.409 42.2348 399.091 43.4318C400.773 44.6136 401.894 46.2197 402.455 48.25H402.818C403.53 46.25 404.818 44.6515 406.682 43.4545C408.561 42.2424 410.78 41.6364 413.341 41.6364C416.598 41.6364 419.242 42.6742 421.273 44.75C423.318 46.8106 424.341 49.7348 424.341 53.5227V77H414.682V55.4318C414.682 53.4924 414.167 52.0379 413.136 51.0682C412.106 50.0985 410.818 49.6136 409.273 49.6136C407.515 49.6136 406.144 50.1742 405.159 51.2955C404.174 52.4015 403.682 53.8636 403.682 55.6818V77H394.295V55.2273C394.295 53.5152 393.803 52.1515 392.818 51.1364C391.848 50.1212 390.568 49.6136 388.977 49.6136C387.902 49.6136 386.932 49.8864 386.068 50.4318C385.22 50.9621 384.545 51.7121 384.045 52.6818C383.545 53.6364 383.295 54.7576 383.295 56.0455V77H373.614ZM447.898 77.6818C444.307 77.6818 441.216 76.9545 438.625 75.5C436.049 74.0303 434.064 71.9545 432.67 69.2727C431.277 66.5758 430.58 63.3864 430.58 59.7045C430.58 56.1136 431.277 52.9621 432.67 50.25C434.064 47.5379 436.027 45.4242 438.557 43.9091C441.102 42.3939 444.087 41.6364 447.511 41.6364C449.814 41.6364 451.958 42.0076 453.943 42.75C455.943 43.4773 457.686 44.5758 459.17 46.0455C460.67 47.5152 461.837 49.3636 462.67 51.5909C463.504 53.803 463.92 56.3939 463.92 59.3636V62.0227H434.443V56.0227H454.807C454.807 54.6288 454.504 53.3939 453.898 52.3182C453.292 51.2424 452.451 50.4015 451.375 49.7955C450.314 49.1742 449.08 48.8636 447.67 48.8636C446.201 48.8636 444.898 49.2045 443.761 49.8864C442.64 50.553 441.761 51.4545 441.125 52.5909C440.489 53.7121 440.163 54.9621 440.148 56.3409V62.0455C440.148 63.7727 440.466 65.2652 441.102 66.5227C441.754 67.7803 442.67 68.75 443.852 69.4318C445.034 70.1136 446.436 70.4545 448.057 70.4545C449.133 70.4545 450.117 70.303 451.011 70C451.905 69.697 452.67 69.2424 453.307 68.6364C453.943 68.0303 454.428 67.2879 454.761 66.4091L463.716 67C463.261 69.1515 462.33 71.0303 460.92 72.6364C459.527 74.2273 457.723 75.4697 455.511 76.3636C453.314 77.2424 450.777 77.6818 447.898 77.6818ZM513.983 30.4545H523.824V60.6818C523.824 64.0758 523.013 67.0455 521.392 69.5909C519.786 72.1364 517.536 74.1212 514.642 75.5455C511.748 76.9545 508.377 77.6591 504.528 77.6591C500.665 77.6591 497.286 76.9545 494.392 75.5455C491.498 74.1212 489.248 72.1364 487.642 69.5909C486.036 67.0455 485.233 64.0758 485.233 60.6818V30.4545H495.074V59.8409C495.074 61.6136 495.46 63.1894 496.233 64.5682C497.021 65.947 498.127 67.0303 499.551 67.8182C500.975 68.6061 502.634 69 504.528 69C506.438 69 508.097 68.6061 509.506 67.8182C510.93 67.0303 512.028 65.947 512.801 64.5682C513.589 63.1894 513.983 61.6136 513.983 59.8409V30.4545ZM550.307 42.0909V49.3636H529.284V42.0909H550.307ZM534.057 33.7273H543.739V66.2727C543.739 67.1667 543.875 67.8636 544.148 68.3636C544.42 68.8485 544.799 69.1894 545.284 69.3864C545.784 69.5833 546.36 69.6818 547.011 69.6818C547.466 69.6818 547.92 69.6439 548.375 69.5682C548.83 69.4773 549.178 69.4091 549.42 69.3636L550.943 76.5682C550.458 76.7197 549.777 76.8939 548.898 77.0909C548.019 77.303 546.951 77.4318 545.693 77.4773C543.36 77.5682 541.314 77.2576 539.557 76.5455C537.814 75.8333 536.458 74.7273 535.489 73.2273C534.519 71.7273 534.042 69.8333 534.057 67.5455V33.7273ZM556.614 77V42.0909H566.295V77H556.614ZM561.477 37.5909C560.038 37.5909 558.803 37.1136 557.773 36.1591C556.758 35.1894 556.25 34.0303 556.25 32.6818C556.25 31.3485 556.758 30.2045 557.773 29.25C558.803 28.2803 560.038 27.7955 561.477 27.7955C562.917 27.7955 564.144 28.2803 565.159 29.25C566.189 30.2045 566.705 31.3485 566.705 32.6818C566.705 34.0303 566.189 35.1894 565.159 36.1591C564.144 37.1136 562.917 37.5909 561.477 37.5909ZM583.733 30.4545V77H574.051V30.4545H583.733ZM591.489 77V42.0909H601.17V77H591.489ZM596.352 37.5909C594.913 37.5909 593.678 37.1136 592.648 36.1591C591.633 35.1894 591.125 34.0303 591.125 32.6818C591.125 31.3485 591.633 30.2045 592.648 29.25C593.678 28.2803 594.913 27.7955 596.352 27.7955C597.792 27.7955 599.019 28.2803 600.034 29.25C601.064 30.2045 601.58 31.3485 601.58 32.6818C601.58 34.0303 601.064 35.1894 600.034 36.1591C599.019 37.1136 597.792 37.5909 596.352 37.5909ZM627.494 42.0909V49.3636H606.472V42.0909H627.494ZM611.244 33.7273H620.926V66.2727C620.926 67.1667 621.063 67.8636 621.335 68.3636C621.608 68.8485 621.987 69.1894 622.472 69.3864C622.972 69.5833 623.547 69.6818 624.199 69.6818C624.653 69.6818 625.108 69.6439 625.562 69.5682C626.017 69.4773 626.366 69.4091 626.608 69.3636L628.131 76.5682C627.646 76.7197 626.964 76.8939 626.085 77.0909C625.206 77.303 624.138 77.4318 622.881 77.4773C620.547 77.5682 618.502 77.2576 616.744 76.5455C615.002 75.8333 613.646 74.7273 612.676 73.2273C611.706 71.7273 611.229 69.8333 611.244 67.5455V33.7273ZM633.801 77V42.0909H643.483V77H633.801ZM638.665 37.5909C637.225 37.5909 635.991 37.1136 634.96 36.1591C633.945 35.1894 633.438 34.0303 633.438 32.6818C633.438 31.3485 633.945 30.2045 634.96 29.25C635.991 28.2803 637.225 27.7955 638.665 27.7955C640.104 27.7955 641.331 28.2803 642.347 29.25C643.377 30.2045 643.892 31.3485 643.892 32.6818C643.892 34.0303 643.377 35.1894 642.347 36.1591C641.331 37.1136 640.104 37.5909 638.665 37.5909ZM667.148 77.6818C663.557 77.6818 660.466 76.9545 657.875 75.5C655.299 74.0303 653.314 71.9545 651.92 69.2727C650.527 66.5758 649.83 63.3864 649.83 59.7045C649.83 56.1136 650.527 52.9621 651.92 50.25C653.314 47.5379 655.277 45.4242 657.807 43.9091C660.352 42.3939 663.337 41.6364 666.761 41.6364C669.064 41.6364 671.208 42.0076 673.193 42.75C675.193 43.4773 676.936 44.5758 678.42 46.0455C679.92 47.5152 681.087 49.3636 681.92 51.5909C682.754 53.803 683.17 56.3939 683.17 59.3636V62.0227H653.693V56.0227H674.057C674.057 54.6288 673.754 53.3939 673.148 52.3182C672.542 51.2424 671.701 50.4015 670.625 49.7955C669.564 49.1742 668.33 48.8636 666.92 48.8636C665.451 48.8636 664.148 49.2045 663.011 49.8864C661.89 50.553 661.011 51.4545 660.375 52.5909C659.739 53.7121 659.413 54.9621 659.398 56.3409V62.0455C659.398 63.7727 659.716 65.2652 660.352 66.5227C661.004 67.7803 661.92 68.75 663.102 69.4318C664.284 70.1136 665.686 70.4545 667.307 70.4545C668.383 70.4545 669.367 70.303 670.261 70C671.155 69.697 671.92 69.2424 672.557 68.6364C673.193 68.0303 673.678 67.2879 674.011 66.4091L682.966 67C682.511 69.1515 681.58 71.0303 680.17 72.6364C678.777 74.2273 676.973 75.4697 674.761 76.3636C672.564 77.2424 670.027 77.6818 667.148 77.6818ZM718.534 52.0455L709.67 52.5909C709.519 51.8333 709.193 51.1515 708.693 50.5455C708.193 49.9242 707.534 49.4318 706.716 49.0682C705.913 48.6894 704.951 48.5 703.83 48.5C702.33 48.5 701.064 48.8182 700.034 49.4545C699.004 50.0758 698.489 50.9091 698.489 51.9545C698.489 52.7879 698.822 53.4924 699.489 54.0682C700.155 54.6439 701.299 55.1061 702.92 55.4545L709.239 56.7273C712.633 57.4242 715.163 58.5455 716.83 60.0909C718.496 61.6364 719.33 63.6667 719.33 66.1818C719.33 68.4697 718.655 70.4773 717.307 72.2045C715.973 73.9318 714.14 75.2803 711.807 76.25C709.489 77.2045 706.814 77.6818 703.784 77.6818C699.163 77.6818 695.481 76.7197 692.739 74.7955C690.011 72.8561 688.413 70.2197 687.943 66.8864L697.466 66.3864C697.754 67.7955 698.451 68.8712 699.557 69.6136C700.663 70.3409 702.08 70.7045 703.807 70.7045C705.504 70.7045 706.867 70.3788 707.898 69.7273C708.943 69.0606 709.473 68.2045 709.489 67.1591C709.473 66.2803 709.102 65.5606 708.375 65C707.648 64.4242 706.527 63.9848 705.011 63.6818L698.966 62.4773C695.557 61.7955 693.019 60.6136 691.352 58.9318C689.701 57.25 688.875 55.1061 688.875 52.5C688.875 50.2576 689.481 48.3258 690.693 46.7045C691.92 45.0833 693.64 43.8333 695.852 42.9545C698.08 42.0758 700.686 41.6364 703.67 41.6364C708.08 41.6364 711.549 42.5682 714.08 44.4318C716.625 46.2955 718.11 48.8333 718.534 52.0455Z" fill="white"/>
<path d="M32.8295 115H30.6136L37.0227 97.5455H39.2045L45.6136 115H43.3977L38.1818 100.307H38.0455L32.8295 115ZM33.6477 108.182H42.5795V110.057H33.6477V108.182ZM60.1278 115.273C58.9006 115.273 57.8438 114.983 56.9574 114.403C56.071 113.824 55.3892 113.026 54.9119 112.009C54.4347 110.991 54.196 109.83 54.196 108.523C54.196 107.193 54.4403 106.02 54.929 105.003C55.4233 103.98 56.1108 103.182 56.9915 102.608C57.8778 102.028 58.9119 101.739 60.0938 101.739C61.0142 101.739 61.8438 101.909 62.5824 102.25C63.321 102.591 63.9261 103.068 64.3977 103.682C64.8693 104.295 65.1619 105.011 65.2756 105.83H63.2642C63.1108 105.233 62.7699 104.705 62.2415 104.244C61.7188 103.778 61.0142 103.545 60.1278 103.545C59.3438 103.545 58.6563 103.75 58.0653 104.159C57.4801 104.562 57.0227 105.134 56.6932 105.872C56.3693 106.605 56.2074 107.466 56.2074 108.455C56.2074 109.466 56.3665 110.347 56.6847 111.097C57.0085 111.847 57.4631 112.429 58.0483 112.844C58.6392 113.259 59.3324 113.466 60.1278 113.466C60.6506 113.466 61.125 113.375 61.5511 113.193C61.9773 113.011 62.3381 112.75 62.6335 112.409C62.929 112.068 63.1392 111.659 63.2642 111.182H65.2756C65.1619 111.955 64.8807 112.651 64.4318 113.27C63.9886 113.884 63.4006 114.372 62.6676 114.736C61.9403 115.094 61.0938 115.273 60.1278 115.273ZM73.5341 115.273C72.3523 115.273 71.3153 114.991 70.4233 114.429C69.5369 113.866 68.8438 113.08 68.3438 112.068C67.8494 111.057 67.6023 109.875 67.6023 108.523C67.6023 107.159 67.8494 105.969 68.3438 104.952C68.8438 103.935 69.5369 103.145 70.4233 102.582C71.3153 102.02 72.3523 101.739 73.5341 101.739C74.7159 101.739 75.75 102.02 76.6364 102.582C77.5284 103.145 78.2216 103.935 78.7159 104.952C79.2159 105.969 79.4659 107.159 79.4659 108.523C79.4659 109.875 79.2159 111.057 78.7159 112.068C78.2216 113.08 77.5284 113.866 76.6364 114.429C75.75 114.991 74.7159 115.273 73.5341 115.273ZM73.5341 113.466C74.4318 113.466 75.1705 113.236 75.75 112.776C76.3295 112.315 76.7585 111.71 77.0369 110.96C77.3153 110.21 77.4545 109.398 77.4545 108.523C77.4545 107.648 77.3153 106.832 77.0369 106.077C76.7585 105.321 76.3295 104.71 75.75 104.244C75.1705 103.778 74.4318 103.545 73.5341 103.545C72.6364 103.545 71.8977 103.778 71.3182 104.244C70.7386 104.71 70.3097 105.321 70.0312 106.077C69.7528 106.832 69.6136 107.648 69.6136 108.523C69.6136 109.398 69.7528 110.21 70.0312 110.96C70.3097 111.71 70.7386 112.315 71.3182 112.776C71.8977 113.236 72.6364 113.466 73.5341 113.466ZM84.5476 97.5455V115H82.5362V97.5455H84.5476ZM90.2429 97.5455V115H88.2315V97.5455H90.2429ZM99.4155 115.273C98.1541 115.273 97.0661 114.994 96.1513 114.438C95.2422 113.875 94.5405 113.091 94.0462 112.085C93.5575 111.074 93.3132 109.898 93.3132 108.557C93.3132 107.216 93.5575 106.034 94.0462 105.011C94.5405 103.983 95.228 103.182 96.1087 102.608C96.995 102.028 98.0291 101.739 99.2109 101.739C99.8928 101.739 100.566 101.852 101.231 102.08C101.896 102.307 102.501 102.676 103.046 103.188C103.592 103.693 104.026 104.364 104.35 105.199C104.674 106.034 104.836 107.062 104.836 108.284V109.136H94.745V107.398H102.79C102.79 106.659 102.643 106 102.347 105.42C102.058 104.841 101.643 104.384 101.103 104.048C100.569 103.713 99.9382 103.545 99.2109 103.545C98.4098 103.545 97.7166 103.744 97.1314 104.142C96.5518 104.534 96.1058 105.045 95.7933 105.676C95.4808 106.307 95.3246 106.983 95.3246 107.705V108.864C95.3246 109.852 95.495 110.69 95.8359 111.378C96.1825 112.06 96.6626 112.58 97.2763 112.938C97.8899 113.29 98.603 113.466 99.4155 113.466C99.9439 113.466 100.421 113.392 100.847 113.244C101.279 113.091 101.651 112.864 101.964 112.562C102.276 112.256 102.518 111.875 102.688 111.42L104.631 111.966C104.427 112.625 104.083 113.205 103.6 113.705C103.117 114.199 102.521 114.585 101.81 114.864C101.1 115.136 100.302 115.273 99.4155 115.273ZM113.214 115.273C111.987 115.273 110.93 114.983 110.043 114.403C109.157 113.824 108.475 113.026 107.998 112.009C107.521 110.991 107.282 109.83 107.282 108.523C107.282 107.193 107.526 106.02 108.015 105.003C108.509 103.98 109.197 103.182 110.077 102.608C110.964 102.028 111.998 101.739 113.18 101.739C114.1 101.739 114.93 101.909 115.668 102.25C116.407 102.591 117.012 103.068 117.484 103.682C117.955 104.295 118.248 105.011 118.362 105.83H116.35C116.197 105.233 115.856 104.705 115.327 104.244C114.805 103.778 114.1 103.545 113.214 103.545C112.43 103.545 111.742 103.75 111.151 104.159C110.566 104.562 110.109 105.134 109.779 105.872C109.455 106.605 109.293 107.466 109.293 108.455C109.293 109.466 109.452 110.347 109.771 111.097C110.094 111.847 110.549 112.429 111.134 112.844C111.725 113.259 112.418 113.466 113.214 113.466C113.737 113.466 114.211 113.375 114.637 113.193C115.063 113.011 115.424 112.75 115.719 112.409C116.015 112.068 116.225 111.659 116.35 111.182H118.362C118.248 111.955 117.967 112.651 117.518 113.27C117.075 113.884 116.487 114.372 115.754 114.736C115.026 115.094 114.18 115.273 113.214 115.273ZM126.995 101.909V103.614H120.211V101.909H126.995ZM122.188 98.7727H124.2V111.25C124.2 111.818 124.282 112.244 124.447 112.528C124.617 112.807 124.833 112.994 125.094 113.091C125.362 113.182 125.643 113.227 125.938 113.227C126.16 113.227 126.342 113.216 126.484 113.193C126.626 113.165 126.739 113.142 126.825 113.125L127.234 114.932C127.097 114.983 126.907 115.034 126.663 115.085C126.418 115.142 126.109 115.17 125.734 115.17C125.165 115.17 124.609 115.048 124.063 114.804C123.523 114.56 123.075 114.188 122.717 113.688C122.364 113.188 122.188 112.557 122.188 111.795V98.7727ZM130.021 115V101.909H132.032V115H130.021ZM131.043 99.7273C130.651 99.7273 130.313 99.5938 130.029 99.3267C129.751 99.0597 129.612 98.7386 129.612 98.3636C129.612 97.9886 129.751 97.6676 130.029 97.4006C130.313 97.1335 130.651 97 131.043 97C131.435 97 131.771 97.1335 132.049 97.4006C132.333 97.6676 132.475 97.9886 132.475 98.3636C132.475 98.7386 132.333 99.0597 132.049 99.3267C131.771 99.5938 131.435 99.7273 131.043 99.7273ZM141.034 115.273C139.852 115.273 138.815 114.991 137.923 114.429C137.037 113.866 136.344 113.08 135.844 112.068C135.349 111.057 135.102 109.875 135.102 108.523C135.102 107.159 135.349 105.969 135.844 104.952C136.344 103.935 137.037 103.145 137.923 102.582C138.815 102.02 139.852 101.739 141.034 101.739C142.216 101.739 143.25 102.02 144.136 102.582C145.028 103.145 145.722 103.935 146.216 104.952C146.716 105.969 146.966 107.159 146.966 108.523C146.966 109.875 146.716 111.057 146.216 112.068C145.722 113.08 145.028 113.866 144.136 114.429C143.25 114.991 142.216 115.273 141.034 115.273ZM141.034 113.466C141.932 113.466 142.67 113.236 143.25 112.776C143.83 112.315 144.259 111.71 144.537 110.96C144.815 110.21 144.955 109.398 144.955 108.523C144.955 107.648 144.815 106.832 144.537 106.077C144.259 105.321 143.83 104.71 143.25 104.244C142.67 103.778 141.932 103.545 141.034 103.545C140.136 103.545 139.398 103.778 138.818 104.244C138.239 104.71 137.81 105.321 137.531 106.077C137.253 106.832 137.114 107.648 137.114 108.523C137.114 109.398 137.253 110.21 137.531 110.96C137.81 111.71 138.239 112.315 138.818 112.776C139.398 113.236 140.136 113.466 141.034 113.466ZM152.048 107.125V115H150.036V101.909H151.979V103.955H152.15C152.457 103.29 152.923 102.756 153.548 102.352C154.173 101.943 154.979 101.739 155.968 101.739C156.854 101.739 157.63 101.92 158.295 102.284C158.96 102.642 159.477 103.188 159.846 103.92C160.215 104.648 160.4 105.568 160.4 106.682V115H158.388V106.818C158.388 105.79 158.121 104.989 157.587 104.415C157.053 103.835 156.32 103.545 155.388 103.545C154.746 103.545 154.173 103.685 153.667 103.963C153.167 104.241 152.772 104.648 152.482 105.182C152.192 105.716 152.048 106.364 152.048 107.125ZM176.143 115.273C174.962 115.273 173.925 114.991 173.033 114.429C172.146 113.866 171.453 113.08 170.953 112.068C170.459 111.057 170.212 109.875 170.212 108.523C170.212 107.159 170.459 105.969 170.953 104.952C171.453 103.935 172.146 103.145 173.033 102.582C173.925 102.02 174.962 101.739 176.143 101.739C177.325 101.739 178.359 102.02 179.246 102.582C180.138 103.145 180.831 103.935 181.325 104.952C181.825 105.969 182.075 107.159 182.075 108.523C182.075 109.875 181.825 111.057 181.325 112.068C180.831 113.08 180.138 113.866 179.246 114.429C178.359 114.991 177.325 115.273 176.143 115.273ZM176.143 113.466C177.041 113.466 177.78 113.236 178.359 112.776C178.939 112.315 179.368 111.71 179.646 110.96C179.925 110.21 180.064 109.398 180.064 108.523C180.064 107.648 179.925 106.832 179.646 106.077C179.368 105.321 178.939 104.71 178.359 104.244C177.78 103.778 177.041 103.545 176.143 103.545C175.246 103.545 174.507 103.778 173.928 104.244C173.348 104.71 172.919 105.321 172.641 106.077C172.362 106.832 172.223 107.648 172.223 108.523C172.223 109.398 172.362 110.21 172.641 110.96C172.919 111.71 173.348 112.315 173.928 112.776C174.507 113.236 175.246 113.466 176.143 113.466ZM190.975 101.909V103.614H183.918V101.909H190.975ZM186.032 115V100.102C186.032 99.3523 186.208 98.7273 186.56 98.2273C186.913 97.7273 187.37 97.3523 187.933 97.1023C188.495 96.8523 189.089 96.7273 189.714 96.7273C190.208 96.7273 190.612 96.767 190.924 96.8466C191.237 96.9261 191.469 97 191.623 97.0682L191.043 98.8068C190.941 98.7727 190.799 98.7301 190.617 98.679C190.441 98.6278 190.208 98.6023 189.918 98.6023C189.254 98.6023 188.773 98.7699 188.478 99.1051C188.188 99.4403 188.043 99.9318 188.043 100.58V115H186.032ZM208.794 109.648V101.909H210.805V115H208.794V112.784H208.658C208.351 113.449 207.874 114.014 207.226 114.48C206.578 114.94 205.76 115.17 204.771 115.17C203.953 115.17 203.226 114.991 202.589 114.634C201.953 114.27 201.453 113.724 201.089 112.997C200.726 112.264 200.544 111.341 200.544 110.227V101.909H202.555V110.091C202.555 111.045 202.822 111.807 203.357 112.375C203.896 112.943 204.584 113.227 205.419 113.227C205.919 113.227 206.428 113.099 206.945 112.844C207.467 112.588 207.905 112.196 208.257 111.668C208.615 111.139 208.794 110.466 208.794 109.648ZM220.183 101.909V103.614H213.398V101.909H220.183ZM215.376 98.7727H217.387V111.25C217.387 111.818 217.469 112.244 217.634 112.528C217.805 112.807 218.021 112.994 218.282 113.091C218.549 113.182 218.83 113.227 219.126 113.227C219.347 113.227 219.529 113.216 219.671 113.193C219.813 113.165 219.927 113.142 220.012 113.125L220.421 114.932C220.285 114.983 220.094 115.034 219.85 115.085C219.606 115.142 219.296 115.17 218.921 115.17C218.353 115.17 217.796 115.048 217.251 114.804C216.711 114.56 216.262 114.188 215.904 113.688C215.552 113.188 215.376 112.557 215.376 111.795V98.7727ZM223.208 115V101.909H225.219V115H223.208ZM224.231 99.7273C223.839 99.7273 223.501 99.5938 223.217 99.3267C222.938 99.0597 222.799 98.7386 222.799 98.3636C222.799 97.9886 222.938 97.6676 223.217 97.4006C223.501 97.1335 223.839 97 224.231 97C224.623 97 224.958 97.1335 225.237 97.4006C225.521 97.6676 225.663 97.9886 225.663 98.3636C225.663 98.7386 225.521 99.0597 225.237 99.3267C224.958 99.5938 224.623 99.7273 224.231 99.7273ZM230.915 97.5455V115H228.903V97.5455H230.915ZM234.599 115V101.909H236.61V115H234.599ZM235.621 99.7273C235.229 99.7273 234.891 99.5938 234.607 99.3267C234.329 99.0597 234.19 98.7386 234.19 98.3636C234.19 97.9886 234.329 97.6676 234.607 97.4006C234.891 97.1335 235.229 97 235.621 97C236.013 97 236.349 97.1335 236.627 97.4006C236.911 97.6676 237.053 97.9886 237.053 98.3636C237.053 98.7386 236.911 99.0597 236.627 99.3267C236.349 99.5938 236.013 99.7273 235.621 99.7273ZM245.987 101.909V103.614H239.203V101.909H245.987ZM241.18 98.7727H243.192V111.25C243.192 111.818 243.274 112.244 243.439 112.528C243.609 112.807 243.825 112.994 244.087 113.091C244.354 113.182 244.635 113.227 244.93 113.227C245.152 113.227 245.334 113.216 245.476 113.193C245.618 113.165 245.732 113.142 245.817 113.125L246.226 114.932C246.089 114.983 245.899 115.034 245.655 115.085C245.411 115.142 245.101 115.17 244.726 115.17C244.158 115.17 243.601 115.048 243.055 114.804C242.516 114.56 242.067 114.188 241.709 113.688C241.357 113.188 241.18 112.557 241.18 111.795V98.7727ZM249.013 115V101.909H251.024V115H249.013ZM250.036 99.7273C249.643 99.7273 249.305 99.5938 249.021 99.3267C248.743 99.0597 248.604 98.7386 248.604 98.3636C248.604 97.9886 248.743 97.6676 249.021 97.4006C249.305 97.1335 249.643 97 250.036 97C250.428 97 250.763 97.1335 251.041 97.4006C251.325 97.6676 251.467 97.9886 251.467 98.3636C251.467 98.7386 251.325 99.0597 251.041 99.3267C250.763 99.5938 250.428 99.7273 250.036 99.7273ZM260.197 115.273C258.935 115.273 257.847 114.994 256.933 114.438C256.023 113.875 255.322 113.091 254.827 112.085C254.339 111.074 254.094 109.898 254.094 108.557C254.094 107.216 254.339 106.034 254.827 105.011C255.322 103.983 256.009 103.182 256.89 102.608C257.776 102.028 258.81 101.739 259.992 101.739C260.674 101.739 261.347 101.852 262.012 102.08C262.677 102.307 263.282 102.676 263.827 103.188C264.373 103.693 264.808 104.364 265.131 105.199C265.455 106.034 265.617 107.062 265.617 108.284V109.136H255.526V107.398H263.572C263.572 106.659 263.424 106 263.129 105.42C262.839 104.841 262.424 104.384 261.884 104.048C261.35 103.713 260.719 103.545 259.992 103.545C259.191 103.545 258.498 103.744 257.913 104.142C257.333 104.534 256.887 105.045 256.575 105.676C256.262 106.307 256.106 106.983 256.106 107.705V108.864C256.106 109.852 256.276 110.69 256.617 111.378C256.964 112.06 257.444 112.58 258.058 112.938C258.671 113.29 259.384 113.466 260.197 113.466C260.725 113.466 261.202 113.392 261.629 113.244C262.06 113.091 262.433 112.864 262.745 112.562C263.058 112.256 263.299 111.875 263.469 111.42L265.413 111.966C265.208 112.625 264.864 113.205 264.381 113.705C263.898 114.199 263.302 114.585 262.592 114.864C261.881 115.136 261.083 115.273 260.197 115.273ZM277.95 104.841L276.143 105.352C276.029 105.051 275.862 104.759 275.64 104.474C275.424 104.185 275.129 103.946 274.754 103.759C274.379 103.571 273.898 103.477 273.313 103.477C272.512 103.477 271.844 103.662 271.31 104.031C270.782 104.395 270.518 104.858 270.518 105.42C270.518 105.92 270.7 106.315 271.063 106.605C271.427 106.895 271.995 107.136 272.768 107.33L274.711 107.807C275.881 108.091 276.754 108.526 277.327 109.111C277.901 109.69 278.188 110.437 278.188 111.352C278.188 112.102 277.972 112.773 277.54 113.364C277.114 113.955 276.518 114.42 275.751 114.761C274.984 115.102 274.092 115.273 273.075 115.273C271.739 115.273 270.634 114.983 269.759 114.403C268.884 113.824 268.33 112.977 268.097 111.864L270.006 111.386C270.188 112.091 270.532 112.619 271.038 112.972C271.549 113.324 272.217 113.5 273.04 113.5C273.978 113.5 274.722 113.301 275.273 112.903C275.83 112.5 276.109 112.017 276.109 111.455C276.109 111 275.95 110.619 275.631 110.312C275.313 110 274.825 109.767 274.165 109.614L271.984 109.102C270.785 108.818 269.904 108.378 269.342 107.781C268.785 107.179 268.506 106.426 268.506 105.523C268.506 104.784 268.714 104.131 269.129 103.562C269.549 102.994 270.12 102.548 270.842 102.224C271.569 101.901 272.393 101.739 273.313 101.739C274.609 101.739 275.626 102.023 276.364 102.591C277.109 103.159 277.637 103.909 277.95 104.841ZM293.795 101.909V103.614H286.739V101.909H293.795ZM288.852 115V100.102C288.852 99.3523 289.028 98.7273 289.381 98.2273C289.733 97.7273 290.19 97.3523 290.753 97.1023C291.315 96.8523 291.909 96.7273 292.534 96.7273C293.028 96.7273 293.432 96.767 293.744 96.8466C294.057 96.9261 294.29 97 294.443 97.0682L293.864 98.8068C293.761 98.7727 293.619 98.7301 293.438 98.679C293.261 98.6278 293.028 98.6023 292.739 98.6023C292.074 98.6023 291.594 98.7699 291.298 99.1051C291.009 99.4403 290.864 99.9318 290.864 100.58V115H288.852ZM301.393 115.273C300.212 115.273 299.175 114.991 298.283 114.429C297.396 113.866 296.703 113.08 296.203 112.068C295.709 111.057 295.462 109.875 295.462 108.523C295.462 107.159 295.709 105.969 296.203 104.952C296.703 103.935 297.396 103.145 298.283 102.582C299.175 102.02 300.212 101.739 301.393 101.739C302.575 101.739 303.609 102.02 304.496 102.582C305.388 103.145 306.081 103.935 306.575 104.952C307.075 105.969 307.325 107.159 307.325 108.523C307.325 109.875 307.075 111.057 306.575 112.068C306.081 113.08 305.388 113.866 304.496 114.429C303.609 114.991 302.575 115.273 301.393 115.273ZM301.393 113.466C302.291 113.466 303.03 113.236 303.609 112.776C304.189 112.315 304.618 111.71 304.896 110.96C305.175 110.21 305.314 109.398 305.314 108.523C305.314 107.648 305.175 106.832 304.896 106.077C304.618 105.321 304.189 104.71 303.609 104.244C303.03 103.778 302.291 103.545 301.393 103.545C300.496 103.545 299.757 103.778 299.178 104.244C298.598 104.71 298.169 105.321 297.891 106.077C297.612 106.832 297.473 107.648 297.473 108.523C297.473 109.398 297.612 110.21 297.891 110.96C298.169 111.71 298.598 112.315 299.178 112.776C299.757 113.236 300.496 113.466 301.393 113.466ZM310.396 115V101.909H312.339V103.886H312.475C312.714 103.239 313.146 102.713 313.771 102.31C314.396 101.906 315.1 101.705 315.884 101.705C316.032 101.705 316.217 101.707 316.438 101.713C316.66 101.719 316.827 101.727 316.941 101.739V103.784C316.873 103.767 316.717 103.741 316.472 103.707C316.234 103.668 315.981 103.648 315.714 103.648C315.077 103.648 314.509 103.781 314.009 104.048C313.515 104.31 313.123 104.673 312.833 105.139C312.549 105.599 312.407 106.125 312.407 106.716V115H310.396ZM331.393 115.273C330.166 115.273 329.109 114.983 328.223 114.403C327.337 113.824 326.655 113.026 326.178 112.009C325.7 110.991 325.462 109.83 325.462 108.523C325.462 107.193 325.706 106.02 326.195 105.003C326.689 103.98 327.376 103.182 328.257 102.608C329.143 102.028 330.178 101.739 331.359 101.739C332.28 101.739 333.109 101.909 333.848 102.25C334.587 102.591 335.192 103.068 335.663 103.682C336.135 104.295 336.428 105.011 336.541 105.83H334.53C334.376 105.233 334.036 104.705 333.507 104.244C332.984 103.778 332.28 103.545 331.393 103.545C330.609 103.545 329.922 103.75 329.331 104.159C328.746 104.562 328.288 105.134 327.959 105.872C327.635 106.605 327.473 107.466 327.473 108.455C327.473 109.466 327.632 110.347 327.95 111.097C328.274 111.847 328.729 112.429 329.314 112.844C329.905 113.259 330.598 113.466 331.393 113.466C331.916 113.466 332.391 113.375 332.817 113.193C333.243 113.011 333.604 112.75 333.899 112.409C334.195 112.068 334.405 111.659 334.53 111.182H336.541C336.428 111.955 336.146 112.651 335.697 113.27C335.254 113.884 334.666 114.372 333.933 114.736C333.206 115.094 332.359 115.273 331.393 115.273ZM339.482 115V101.909H341.425V103.886H341.561C341.8 103.239 342.232 102.713 342.857 102.31C343.482 101.906 344.186 101.705 344.97 101.705C345.118 101.705 345.303 101.707 345.524 101.713C345.746 101.719 345.913 101.727 346.027 101.739V103.784C345.959 103.767 345.803 103.741 345.558 103.707C345.32 103.668 345.067 103.648 344.8 103.648C344.163 103.648 343.595 103.781 343.095 104.048C342.601 104.31 342.209 104.673 341.919 105.139C341.635 105.599 341.493 106.125 341.493 106.716V115H339.482ZM353.501 115.273C352.24 115.273 351.152 114.994 350.237 114.438C349.328 113.875 348.626 113.091 348.132 112.085C347.643 111.074 347.399 109.898 347.399 108.557C347.399 107.216 347.643 106.034 348.132 105.011C348.626 103.983 349.314 103.182 350.195 102.608C351.081 102.028 352.115 101.739 353.297 101.739C353.979 101.739 354.652 101.852 355.317 102.08C355.982 102.307 356.587 102.676 357.132 103.188C357.678 103.693 358.112 104.364 358.436 105.199C358.76 106.034 358.922 107.062 358.922 108.284V109.136H348.831V107.398H356.876C356.876 106.659 356.729 106 356.433 105.42C356.143 104.841 355.729 104.384 355.189 104.048C354.655 103.713 354.024 103.545 353.297 103.545C352.496 103.545 351.803 103.744 351.217 104.142C350.638 104.534 350.192 105.045 349.879 105.676C349.567 106.307 349.411 106.983 349.411 107.705V108.864C349.411 109.852 349.581 110.69 349.922 111.378C350.268 112.06 350.749 112.58 351.362 112.938C351.976 113.29 352.689 113.466 353.501 113.466C354.03 113.466 354.507 113.392 354.933 113.244C355.365 113.091 355.737 112.864 356.05 112.562C356.362 112.256 356.604 111.875 356.774 111.42L358.717 111.966C358.513 112.625 358.169 113.205 357.686 113.705C357.203 114.199 356.607 114.585 355.896 114.864C355.186 115.136 354.388 115.273 353.501 115.273ZM365.834 115.307C365.004 115.307 364.251 115.151 363.575 114.838C362.899 114.52 362.362 114.062 361.964 113.466C361.567 112.864 361.368 112.136 361.368 111.284C361.368 110.534 361.516 109.926 361.811 109.46C362.107 108.989 362.501 108.619 362.996 108.352C363.49 108.085 364.036 107.886 364.632 107.756C365.234 107.619 365.839 107.511 366.447 107.432C367.243 107.33 367.888 107.253 368.382 107.202C368.882 107.145 369.246 107.051 369.473 106.92C369.706 106.79 369.822 106.562 369.822 106.239V106.17C369.822 105.33 369.592 104.676 369.132 104.21C368.678 103.744 367.987 103.511 367.061 103.511C366.101 103.511 365.348 103.722 364.803 104.142C364.257 104.562 363.874 105.011 363.652 105.489L361.743 104.807C362.084 104.011 362.538 103.392 363.107 102.949C363.68 102.5 364.305 102.187 364.982 102.011C365.663 101.83 366.334 101.739 366.993 101.739C367.413 101.739 367.896 101.79 368.442 101.892C368.993 101.989 369.524 102.19 370.036 102.497C370.553 102.804 370.982 103.267 371.322 103.886C371.663 104.506 371.834 105.335 371.834 106.375V115H369.822V113.227H369.72C369.584 113.511 369.357 113.815 369.038 114.139C368.72 114.463 368.297 114.739 367.768 114.966C367.24 115.193 366.595 115.307 365.834 115.307ZM366.141 113.5C366.936 113.5 367.607 113.344 368.152 113.031C368.703 112.719 369.118 112.315 369.396 111.821C369.68 111.327 369.822 110.807 369.822 110.261V108.42C369.737 108.523 369.55 108.616 369.26 108.702C368.976 108.781 368.646 108.852 368.271 108.915C367.902 108.972 367.541 109.023 367.189 109.068C366.842 109.108 366.561 109.142 366.345 109.17C365.822 109.239 365.334 109.349 364.879 109.503C364.43 109.651 364.067 109.875 363.788 110.176C363.516 110.472 363.379 110.875 363.379 111.386C363.379 112.085 363.638 112.614 364.155 112.972C364.678 113.324 365.339 113.5 366.141 113.5ZM381.198 101.909V103.614H374.414V101.909H381.198ZM376.391 98.7727H378.403V111.25C378.403 111.818 378.485 112.244 378.65 112.528C378.82 112.807 379.036 112.994 379.298 113.091C379.565 113.182 379.846 113.227 380.141 113.227C380.363 113.227 380.545 113.216 380.687 113.193C380.829 113.165 380.942 113.142 381.028 113.125L381.437 114.932C381.3 114.983 381.11 115.034 380.866 115.085C380.621 115.142 380.312 115.17 379.937 115.17C379.369 115.17 378.812 115.048 378.266 114.804C377.727 114.56 377.278 114.188 376.92 113.688C376.567 113.188 376.391 112.557 376.391 111.795V98.7727ZM384.224 115V101.909H386.235V115H384.224ZM385.246 99.7273C384.854 99.7273 384.516 99.5938 384.232 99.3267C383.954 99.0597 383.815 98.7386 383.815 98.3636C383.815 97.9886 383.954 97.6676 384.232 97.4006C384.516 97.1335 384.854 97 385.246 97C385.638 97 385.974 97.1335 386.252 97.4006C386.536 97.6676 386.678 97.9886 386.678 98.3636C386.678 98.7386 386.536 99.0597 386.252 99.3267C385.974 99.5938 385.638 99.7273 385.246 99.7273ZM391.93 107.125V115H389.919V101.909H391.862V103.955H392.033C392.339 103.29 392.805 102.756 393.43 102.352C394.055 101.943 394.862 101.739 395.851 101.739C396.737 101.739 397.513 101.92 398.178 102.284C398.842 102.642 399.359 103.188 399.729 103.92C400.098 104.648 400.283 105.568 400.283 106.682V115H398.271V106.818C398.271 105.79 398.004 104.989 397.47 104.415C396.936 103.835 396.203 103.545 395.271 103.545C394.629 103.545 394.055 103.685 393.55 103.963C393.05 104.241 392.655 104.648 392.365 105.182C392.075 105.716 391.93 106.364 391.93 107.125ZM409.242 120.182C408.271 120.182 407.435 120.057 406.737 119.807C406.038 119.562 405.455 119.239 404.989 118.835C404.529 118.438 404.163 118.011 403.89 117.557L405.492 116.432C405.674 116.67 405.904 116.943 406.183 117.25C406.461 117.562 406.842 117.832 407.325 118.06C407.813 118.293 408.452 118.409 409.242 118.409C410.299 118.409 411.171 118.153 411.859 117.642C412.546 117.131 412.89 116.33 412.89 115.239V112.58H412.719C412.572 112.818 412.362 113.114 412.089 113.466C411.822 113.812 411.435 114.122 410.93 114.395C410.43 114.662 409.754 114.795 408.901 114.795C407.844 114.795 406.896 114.545 406.055 114.045C405.219 113.545 404.558 112.818 404.069 111.864C403.586 110.909 403.344 109.75 403.344 108.386C403.344 107.045 403.58 105.878 404.052 104.884C404.523 103.884 405.18 103.111 406.021 102.565C406.862 102.014 407.833 101.739 408.935 101.739C409.788 101.739 410.464 101.881 410.964 102.165C411.469 102.443 411.856 102.761 412.123 103.119C412.396 103.472 412.606 103.761 412.754 103.989H412.958V101.909H414.901V115.375C414.901 116.5 414.646 117.415 414.134 118.119C413.629 118.83 412.947 119.349 412.089 119.679C411.237 120.014 410.288 120.182 409.242 120.182ZM409.174 112.989C409.981 112.989 410.663 112.804 411.219 112.435C411.776 112.065 412.2 111.534 412.489 110.841C412.779 110.148 412.924 109.318 412.924 108.352C412.924 107.409 412.782 106.577 412.498 105.855C412.214 105.134 411.793 104.568 411.237 104.159C410.68 103.75 409.992 103.545 409.174 103.545C408.322 103.545 407.612 103.761 407.043 104.193C406.481 104.625 406.058 105.205 405.773 105.932C405.495 106.659 405.356 107.466 405.356 108.352C405.356 109.261 405.498 110.065 405.782 110.764C406.072 111.457 406.498 112.003 407.06 112.401C407.629 112.793 408.333 112.989 409.174 112.989ZM425.333 115V101.909H427.276V103.886H427.413C427.651 103.239 428.083 102.713 428.708 102.31C429.333 101.906 430.038 101.705 430.822 101.705C430.969 101.705 431.154 101.707 431.376 101.713C431.597 101.719 431.765 101.727 431.879 101.739V103.784C431.81 103.767 431.654 103.741 431.41 103.707C431.171 103.668 430.918 103.648 430.651 103.648C430.015 103.648 429.447 103.781 428.947 104.048C428.452 104.31 428.06 104.673 427.771 105.139C427.487 105.599 427.344 106.125 427.344 106.716V115H425.333ZM436.274 107.125V115H434.263V97.5455H436.274V103.955H436.445C436.751 103.278 437.212 102.741 437.825 102.344C438.445 101.94 439.268 101.739 440.297 101.739C441.189 101.739 441.97 101.918 442.641 102.276C443.311 102.628 443.831 103.17 444.2 103.903C444.575 104.631 444.763 105.557 444.763 106.682V115H442.751V106.818C442.751 105.778 442.482 104.974 441.942 104.406C441.408 103.832 440.666 103.545 439.717 103.545C439.058 103.545 438.467 103.685 437.945 103.963C437.428 104.241 437.018 104.648 436.717 105.182C436.422 105.716 436.274 106.364 436.274 107.125ZM449.269 119.909C448.928 119.909 448.624 119.881 448.357 119.824C448.09 119.773 447.906 119.722 447.803 119.67L448.315 117.898C448.803 118.023 449.235 118.068 449.61 118.034C449.985 118 450.317 117.832 450.607 117.531C450.903 117.236 451.173 116.756 451.417 116.091L451.792 115.068L446.951 101.909H449.133L452.746 112.341H452.883L456.496 101.909H458.678L453.121 116.909C452.871 117.585 452.562 118.145 452.192 118.588C451.823 119.037 451.394 119.369 450.906 119.585C450.423 119.801 449.877 119.909 449.269 119.909ZM467.026 101.909V103.614H460.242V101.909H467.026ZM462.219 98.7727H464.231V111.25C464.231 111.818 464.313 112.244 464.478 112.528C464.648 112.807 464.864 112.994 465.126 113.091C465.393 113.182 465.674 113.227 465.969 113.227C466.191 113.227 466.373 113.216 466.515 113.193C466.657 113.165 466.771 113.142 466.856 113.125L467.265 114.932C467.129 114.983 466.938 115.034 466.694 115.085C466.45 115.142 466.14 115.17 465.765 115.17C465.197 115.17 464.64 115.048 464.094 114.804C463.555 114.56 463.106 114.188 462.748 113.688C462.396 113.188 462.219 112.557 462.219 111.795V98.7727ZM472.344 107.125V115H470.333V97.5455H472.344V103.955H472.515C472.822 103.278 473.282 102.741 473.896 102.344C474.515 101.94 475.339 101.739 476.367 101.739C477.259 101.739 478.04 101.918 478.711 102.276C479.381 102.628 479.901 103.17 480.271 103.903C480.646 104.631 480.833 105.557 480.833 106.682V115H478.822V106.818C478.822 105.778 478.552 104.974 478.012 104.406C477.478 103.832 476.737 103.545 475.788 103.545C475.129 103.545 474.538 103.685 474.015 103.963C473.498 104.241 473.089 104.648 472.788 105.182C472.492 105.716 472.344 106.364 472.344 107.125ZM484.513 115V101.909H486.456V103.955H486.626C486.899 103.256 487.339 102.713 487.947 102.327C488.555 101.935 489.286 101.739 490.138 101.739C491.001 101.739 491.72 101.935 492.294 102.327C492.874 102.713 493.325 103.256 493.649 103.955H493.786C494.121 103.278 494.624 102.741 495.294 102.344C495.964 101.94 496.768 101.739 497.706 101.739C498.876 101.739 499.834 102.105 500.578 102.838C501.322 103.565 501.695 104.699 501.695 106.239V115H499.683V106.239C499.683 105.273 499.419 104.582 498.891 104.168C498.362 103.753 497.74 103.545 497.024 103.545C496.104 103.545 495.391 103.824 494.885 104.381C494.379 104.932 494.126 105.631 494.126 106.477V115H492.081V106.034C492.081 105.29 491.839 104.69 491.357 104.236C490.874 103.776 490.251 103.545 489.49 103.545C488.967 103.545 488.479 103.685 488.024 103.963C487.575 104.241 487.212 104.628 486.933 105.122C486.661 105.611 486.524 106.176 486.524 106.818V115H484.513ZM517.406 120.182C516.435 120.182 515.599 120.057 514.901 119.807C514.202 119.562 513.619 119.239 513.153 118.835C512.693 118.438 512.327 118.011 512.054 117.557L513.656 116.432C513.838 116.67 514.068 116.943 514.347 117.25C514.625 117.562 515.006 117.832 515.489 118.06C515.977 118.293 516.616 118.409 517.406 118.409C518.463 118.409 519.335 118.153 520.023 117.642C520.71 117.131 521.054 116.33 521.054 115.239V112.58H520.884C520.736 112.818 520.526 113.114 520.253 113.466C519.986 113.812 519.599 114.122 519.094 114.395C518.594 114.662 517.918 114.795 517.065 114.795C516.009 114.795 515.06 114.545 514.219 114.045C513.384 113.545 512.722 112.818 512.233 111.864C511.75 110.909 511.509 109.75 511.509 108.386C511.509 107.045 511.744 105.878 512.216 104.884C512.688 103.884 513.344 103.111 514.185 102.565C515.026 102.014 515.997 101.739 517.099 101.739C517.952 101.739 518.628 101.881 519.128 102.165C519.634 102.443 520.02 102.761 520.287 103.119C520.56 103.472 520.77 103.761 520.918 103.989H521.122V101.909H523.065V115.375C523.065 116.5 522.81 117.415 522.298 118.119C521.793 118.83 521.111 119.349 520.253 119.679C519.401 120.014 518.452 120.182 517.406 120.182ZM517.338 112.989C518.145 112.989 518.827 112.804 519.384 112.435C519.94 112.065 520.364 111.534 520.653 110.841C520.943 110.148 521.088 109.318 521.088 108.352C521.088 107.409 520.946 106.577 520.662 105.855C520.378 105.134 519.957 104.568 519.401 104.159C518.844 103.75 518.156 103.545 517.338 103.545C516.486 103.545 515.776 103.761 515.207 104.193C514.645 104.625 514.222 105.205 513.938 105.932C513.659 106.659 513.52 107.466 513.52 108.352C513.52 109.261 513.662 110.065 513.946 110.764C514.236 111.457 514.662 112.003 515.224 112.401C515.793 112.793 516.497 112.989 517.338 112.989ZM530.599 115.307C529.77 115.307 529.017 115.151 528.341 114.838C527.665 114.52 527.128 114.062 526.73 113.466C526.332 112.864 526.134 112.136 526.134 111.284C526.134 110.534 526.281 109.926 526.577 109.46C526.872 108.989 527.267 108.619 527.761 108.352C528.256 108.085 528.801 107.886 529.398 107.756C530 107.619 530.605 107.511 531.213 107.432C532.009 107.33 532.653 107.253 533.148 107.202C533.648 107.145 534.011 107.051 534.239 106.92C534.472 106.79 534.588 106.562 534.588 106.239V106.17C534.588 105.33 534.358 104.676 533.898 104.21C533.443 103.744 532.753 103.511 531.827 103.511C530.866 103.511 530.114 103.722 529.568 104.142C529.023 104.562 528.639 105.011 528.418 105.489L526.509 104.807C526.849 104.011 527.304 103.392 527.872 102.949C528.446 102.5 529.071 102.187 529.747 102.011C530.429 101.83 531.099 101.739 531.759 101.739C532.179 101.739 532.662 101.79 533.207 101.892C533.759 101.989 534.29 102.19 534.801 102.497C535.318 102.804 535.747 103.267 536.088 103.886C536.429 104.506 536.599 105.335 536.599 106.375V115H534.588V113.227H534.486C534.349 113.511 534.122 113.815 533.804 114.139C533.486 114.463 533.063 114.739 532.534 114.966C532.006 115.193 531.361 115.307 530.599 115.307ZM530.906 113.5C531.702 113.5 532.372 113.344 532.918 113.031C533.469 112.719 533.884 112.315 534.162 111.821C534.446 111.327 534.588 110.807 534.588 110.261V108.42C534.503 108.523 534.315 108.616 534.026 108.702C533.741 108.781 533.412 108.852 533.037 108.915C532.668 108.972 532.307 109.023 531.955 109.068C531.608 109.108 531.327 109.142 531.111 109.17C530.588 109.239 530.099 109.349 529.645 109.503C529.196 109.651 528.832 109.875 528.554 110.176C528.281 110.472 528.145 110.875 528.145 111.386C528.145 112.085 528.403 112.614 528.92 112.972C529.443 113.324 530.105 113.5 530.906 113.5ZM540.271 115V101.909H542.214V103.955H542.384C542.657 103.256 543.097 102.713 543.705 102.327C544.313 101.935 545.043 101.739 545.896 101.739C546.759 101.739 547.478 101.935 548.052 102.327C548.631 102.713 549.083 103.256 549.407 103.955H549.543C549.879 103.278 550.381 102.741 551.052 102.344C551.722 101.94 552.526 101.739 553.464 101.739C554.634 101.739 555.592 102.105 556.336 102.838C557.08 103.565 557.452 104.699 557.452 106.239V115H555.441V106.239C555.441 105.273 555.177 104.582 554.648 104.168C554.12 103.753 553.498 103.545 552.782 103.545C551.862 103.545 551.148 103.824 550.643 104.381C550.137 104.932 549.884 105.631 549.884 106.477V115H547.839V106.034C547.839 105.29 547.597 104.69 547.114 104.236C546.631 103.776 546.009 103.545 545.248 103.545C544.725 103.545 544.237 103.685 543.782 103.963C543.333 104.241 542.969 104.628 542.691 105.122C542.418 105.611 542.282 106.176 542.282 106.818V115H540.271ZM566.619 115.273C565.357 115.273 564.269 114.994 563.354 114.438C562.445 113.875 561.744 113.091 561.249 112.085C560.761 111.074 560.516 109.898 560.516 108.557C560.516 107.216 560.761 106.034 561.249 105.011C561.744 103.983 562.431 103.182 563.312 102.608C564.198 102.028 565.232 101.739 566.414 101.739C567.096 101.739 567.769 101.852 568.434 102.08C569.099 102.307 569.704 102.676 570.249 103.188C570.795 103.693 571.229 104.364 571.553 105.199C571.877 106.034 572.039 107.062 572.039 108.284V109.136H561.948V107.398H569.994C569.994 106.659 569.846 106 569.55 105.42C569.261 104.841 568.846 104.384 568.306 104.048C567.772 103.713 567.141 103.545 566.414 103.545C565.613 103.545 564.92 103.744 564.335 104.142C563.755 104.534 563.309 105.045 562.996 105.676C562.684 106.307 562.528 106.983 562.528 107.705V108.864C562.528 109.852 562.698 110.69 563.039 111.378C563.386 112.06 563.866 112.58 564.479 112.938C565.093 113.29 565.806 113.466 566.619 113.466C567.147 113.466 567.624 113.392 568.05 113.244C568.482 113.091 568.854 112.864 569.167 112.562C569.479 112.256 569.721 111.875 569.891 111.42L571.835 111.966C571.63 112.625 571.286 113.205 570.803 113.705C570.32 114.199 569.724 114.585 569.013 114.864C568.303 115.136 567.505 115.273 566.619 115.273ZM584.371 104.841L582.565 105.352C582.451 105.051 582.283 104.759 582.062 104.474C581.846 104.185 581.55 103.946 581.175 103.759C580.8 103.571 580.32 103.477 579.735 103.477C578.934 103.477 578.266 103.662 577.732 104.031C577.204 104.395 576.94 104.858 576.94 105.42C576.94 105.92 577.121 106.315 577.485 106.605C577.849 106.895 578.417 107.136 579.19 107.33L581.133 107.807C582.303 108.091 583.175 108.526 583.749 109.111C584.323 109.69 584.61 110.437 584.61 111.352C584.61 112.102 584.394 112.773 583.962 113.364C583.536 113.955 582.94 114.42 582.173 114.761C581.406 115.102 580.513 115.273 579.496 115.273C578.161 115.273 577.056 114.983 576.181 114.403C575.306 113.824 574.752 112.977 574.519 111.864L576.428 111.386C576.61 112.091 576.954 112.619 577.46 112.972C577.971 113.324 578.638 113.5 579.462 113.5C580.4 113.5 581.144 113.301 581.695 112.903C582.252 112.5 582.531 112.017 582.531 111.455C582.531 111 582.371 110.619 582.053 110.312C581.735 110 581.246 109.767 580.587 109.614L578.406 109.102C577.207 108.818 576.326 108.378 575.763 107.781C575.207 107.179 574.928 106.426 574.928 105.523C574.928 104.784 575.136 104.131 575.55 103.562C575.971 102.994 576.542 102.548 577.263 102.224C577.991 101.901 578.815 101.739 579.735 101.739C581.031 101.739 582.048 102.023 582.786 102.591C583.531 103.159 584.059 103.909 584.371 104.841ZM594.388 115V101.909H596.399V115H594.388ZM595.411 99.7273C595.018 99.7273 594.68 99.5938 594.396 99.3267C594.118 99.0597 593.979 98.7386 593.979 98.3636C593.979 97.9886 594.118 97.6676 594.396 97.4006C594.68 97.1335 595.018 97 595.411 97C595.803 97 596.138 97.1335 596.416 97.4006C596.7 97.6676 596.842 97.9886 596.842 98.3636C596.842 98.7386 596.7 99.0597 596.416 99.3267C596.138 99.5938 595.803 99.7273 595.411 99.7273ZM602.094 107.125V115H600.083V101.909H602.026V103.955H602.197C602.504 103.29 602.969 102.756 603.594 102.352C604.219 101.943 605.026 101.739 606.015 101.739C606.901 101.739 607.677 101.92 608.342 102.284C609.006 102.642 609.523 103.188 609.893 103.92C610.262 104.648 610.447 105.568 610.447 106.682V115H608.435V106.818C608.435 105.79 608.168 104.989 607.634 104.415C607.1 103.835 606.367 103.545 605.435 103.545C604.793 103.545 604.219 103.685 603.714 103.963C603.214 104.241 602.819 104.648 602.529 105.182C602.239 105.716 602.094 106.364 602.094 107.125ZM43.5682 126.545H45.6818V138.102C45.6818 139.295 45.4006 140.361 44.8381 141.298C44.2813 142.23 43.4943 142.966 42.4773 143.506C41.4602 144.04 40.267 144.307 38.8977 144.307C37.5284 144.307 36.3352 144.04 35.3182 143.506C34.3011 142.966 33.5114 142.23 32.9489 141.298C32.392 140.361 32.1136 139.295 32.1136 138.102V126.545H34.2273V137.932C34.2273 138.784 34.4148 139.543 34.7898 140.207C35.1648 140.866 35.6989 141.386 36.392 141.767C37.0909 142.142 37.9261 142.33 38.8977 142.33C39.8693 142.33 40.7045 142.142 41.4034 141.767C42.1023 141.386 42.6364 140.866 43.0057 140.207C43.3807 139.543 43.5682 138.784 43.5682 137.932V126.545ZM51.6413 136.125V144H49.63V130.909H51.5732V132.955H51.7436C52.0504 132.29 52.5163 131.756 53.1413 131.352C53.7663 130.943 54.5732 130.739 55.5618 130.739C56.4482 130.739 57.2237 130.92 57.8885 131.284C58.5533 131.642 59.0703 132.188 59.4396 132.92C59.8089 133.648 59.9936 134.568 59.9936 135.682V144H57.9822V135.818C57.9822 134.79 57.7152 133.989 57.1811 133.415C56.647 132.835 55.9141 132.545 54.9822 132.545C54.3402 132.545 53.7663 132.685 53.2607 132.963C52.7607 133.241 52.3658 133.648 52.076 134.182C51.7862 134.716 51.6413 135.364 51.6413 136.125ZM63.669 144V130.909H65.6804V144H63.669ZM64.6918 128.727C64.2997 128.727 63.9616 128.594 63.6776 128.327C63.3991 128.06 63.2599 127.739 63.2599 127.364C63.2599 126.989 63.3991 126.668 63.6776 126.401C63.9616 126.134 64.2997 126 64.6918 126C65.0838 126 65.419 126.134 65.6974 126.401C65.9815 126.668 66.1236 126.989 66.1236 127.364C66.1236 127.739 65.9815 128.06 65.6974 128.327C65.419 128.594 65.0838 128.727 64.6918 128.727ZM75.0575 130.909V132.614H68.2734V130.909H75.0575ZM70.2507 127.773H72.2621V140.25C72.2621 140.818 72.3445 141.244 72.5092 141.528C72.6797 141.807 72.8956 141.994 73.157 142.091C73.424 142.182 73.7053 142.227 74.0007 142.227C74.2223 142.227 74.4041 142.216 74.5462 142.193C74.6882 142.165 74.8018 142.142 74.8871 142.125L75.2962 143.932C75.1598 143.983 74.9695 144.034 74.7251 144.085C74.4808 144.142 74.1712 144.17 73.7962 144.17C73.228 144.17 72.6712 144.048 72.1257 143.804C71.5859 143.56 71.1371 143.188 70.7791 142.688C70.4268 142.188 70.2507 141.557 70.2507 140.795V127.773ZM79.3786 148.909C79.0376 148.909 78.7337 148.881 78.4666 148.824C78.1996 148.773 78.0149 148.722 77.9126 148.67L78.424 146.898C78.9126 147.023 79.3445 147.068 79.7195 147.034C80.0945 147 80.4268 146.832 80.7166 146.531C81.0121 146.236 81.282 145.756 81.5263 145.091L81.9013 144.068L77.0604 130.909H79.2422L82.8558 141.341H82.9922L86.6058 130.909H88.7876L83.2308 145.909C82.9808 146.585 82.6712 147.145 82.3018 147.588C81.9325 148.037 81.5036 148.369 81.0149 148.585C80.532 148.801 79.9865 148.909 79.3786 148.909ZM93.6222 141.614L93.4858 142.534C93.3892 143.182 93.2415 143.875 93.0426 144.614C92.8494 145.352 92.6477 146.048 92.4375 146.702C92.2273 147.355 92.054 147.875 91.9176 148.261H90.3835C90.4574 147.898 90.554 147.418 90.6733 146.821C90.7926 146.224 90.9119 145.557 91.0312 144.818C91.1562 144.085 91.2585 143.335 91.3381 142.568L91.4403 141.614H93.6222ZM115.826 126.545H117.94V138.102C117.94 139.295 117.658 140.361 117.096 141.298C116.539 142.23 115.752 142.966 114.735 143.506C113.718 144.04 112.525 144.307 111.156 144.307C109.786 144.307 108.593 144.04 107.576 143.506C106.559 142.966 105.769 142.23 105.207 141.298C104.65 140.361 104.371 139.295 104.371 138.102V126.545H106.485V137.932C106.485 138.784 106.673 139.543 107.048 140.207C107.423 140.866 107.957 141.386 108.65 141.767C109.349 142.142 110.184 142.33 111.156 142.33C112.127 142.33 112.962 142.142 113.661 141.767C114.36 141.386 114.894 140.866 115.263 140.207C115.638 139.543 115.826 138.784 115.826 137.932V126.545ZM123.899 136.125V144H121.888V130.909H123.831V132.955H124.001C124.308 132.29 124.774 131.756 125.399 131.352C126.024 130.943 126.831 130.739 127.82 130.739C128.706 130.739 129.482 130.92 130.146 131.284C130.811 131.642 131.328 132.188 131.697 132.92C132.067 133.648 132.251 134.568 132.251 135.682V144H130.24V135.818C130.24 134.79 129.973 133.989 129.439 133.415C128.905 132.835 128.172 132.545 127.24 132.545C126.598 132.545 126.024 132.685 125.518 132.963C125.018 133.241 124.624 133.648 124.334 134.182C124.044 134.716 123.899 135.364 123.899 136.125ZM135.927 144V130.909H137.87V132.886H138.006C138.245 132.239 138.677 131.713 139.302 131.31C139.927 130.906 140.631 130.705 141.415 130.705C141.563 130.705 141.748 130.707 141.969 130.713C142.191 130.719 142.359 130.727 142.472 130.739V132.784C142.404 132.767 142.248 132.741 142.004 132.707C141.765 132.668 141.512 132.648 141.245 132.648C140.609 132.648 140.04 132.781 139.54 133.048C139.046 133.31 138.654 133.673 138.364 134.139C138.08 134.599 137.938 135.125 137.938 135.716V144H135.927ZM149.947 144.273C148.685 144.273 147.597 143.994 146.683 143.438C145.773 142.875 145.072 142.091 144.577 141.085C144.089 140.074 143.844 138.898 143.844 137.557C143.844 136.216 144.089 135.034 144.577 134.011C145.072 132.983 145.759 132.182 146.64 131.608C147.526 131.028 148.56 130.739 149.742 130.739C150.424 130.739 151.097 130.852 151.762 131.08C152.427 131.307 153.032 131.676 153.577 132.188C154.123 132.693 154.558 133.364 154.881 134.199C155.205 135.034 155.367 136.062 155.367 137.284V138.136H145.276V136.398H153.322C153.322 135.659 153.174 135 152.879 134.42C152.589 133.841 152.174 133.384 151.634 133.048C151.1 132.713 150.469 132.545 149.742 132.545C148.941 132.545 148.248 132.744 147.663 133.142C147.083 133.534 146.637 134.045 146.325 134.676C146.012 135.307 145.856 135.983 145.856 136.705V137.864C145.856 138.852 146.026 139.69 146.367 140.378C146.714 141.06 147.194 141.58 147.808 141.938C148.421 142.29 149.134 142.466 149.947 142.466C150.475 142.466 150.952 142.392 151.379 142.244C151.81 142.091 152.183 141.864 152.495 141.562C152.808 141.256 153.049 140.875 153.219 140.42L155.163 140.966C154.958 141.625 154.614 142.205 154.131 142.705C153.648 143.199 153.052 143.585 152.342 143.864C151.631 144.136 150.833 144.273 149.947 144.273ZM162.279 144.307C161.45 144.307 160.697 144.151 160.021 143.838C159.344 143.52 158.808 143.062 158.41 142.466C158.012 141.864 157.813 141.136 157.813 140.284C157.813 139.534 157.961 138.926 158.256 138.46C158.552 137.989 158.947 137.619 159.441 137.352C159.935 137.085 160.481 136.886 161.077 136.756C161.68 136.619 162.285 136.511 162.893 136.432C163.688 136.33 164.333 136.253 164.827 136.202C165.327 136.145 165.691 136.051 165.918 135.92C166.151 135.79 166.268 135.562 166.268 135.239V135.17C166.268 134.33 166.038 133.676 165.577 133.21C165.123 132.744 164.433 132.511 163.506 132.511C162.546 132.511 161.793 132.722 161.248 133.142C160.702 133.562 160.319 134.011 160.097 134.489L158.188 133.807C158.529 133.011 158.984 132.392 159.552 131.949C160.126 131.5 160.751 131.187 161.427 131.011C162.109 130.83 162.779 130.739 163.438 130.739C163.859 130.739 164.342 130.79 164.887 130.892C165.438 130.989 165.969 131.19 166.481 131.497C166.998 131.804 167.427 132.267 167.768 132.886C168.109 133.506 168.279 134.335 168.279 135.375V144H166.268V142.227H166.165C166.029 142.511 165.802 142.815 165.484 143.139C165.165 143.463 164.742 143.739 164.214 143.966C163.685 144.193 163.04 144.307 162.279 144.307ZM162.586 142.5C163.381 142.5 164.052 142.344 164.597 142.031C165.148 141.719 165.563 141.315 165.842 140.821C166.126 140.327 166.268 139.807 166.268 139.261V137.42C166.183 137.523 165.995 137.616 165.705 137.702C165.421 137.781 165.092 137.852 164.717 137.915C164.347 137.972 163.987 138.023 163.634 138.068C163.288 138.108 163.006 138.142 162.79 138.17C162.268 138.239 161.779 138.349 161.325 138.503C160.876 138.651 160.512 138.875 160.234 139.176C159.961 139.472 159.825 139.875 159.825 140.386C159.825 141.085 160.083 141.614 160.6 141.972C161.123 142.324 161.785 142.5 162.586 142.5ZM173.962 126.545V144H171.95V126.545H173.962ZM180.646 141.614L180.509 142.534C180.413 143.182 180.265 143.875 180.066 144.614C179.873 145.352 179.671 146.048 179.461 146.702C179.251 147.355 179.077 147.875 178.941 148.261H177.407C177.481 147.898 177.577 147.418 177.697 146.821C177.816 146.224 177.935 145.557 178.055 144.818C178.18 144.085 178.282 143.335 178.362 142.568L178.464 141.614H180.646ZM203.327 132C203.139 131.426 202.892 130.912 202.585 130.457C202.284 129.997 201.923 129.605 201.503 129.281C201.088 128.957 200.616 128.71 200.088 128.54C199.56 128.369 198.98 128.284 198.349 128.284C197.315 128.284 196.375 128.551 195.528 129.085C194.682 129.619 194.009 130.406 193.509 131.446C193.009 132.486 192.759 133.761 192.759 135.273C192.759 136.784 193.011 138.06 193.517 139.099C194.023 140.139 194.707 140.926 195.571 141.46C196.435 141.994 197.406 142.261 198.486 142.261C199.486 142.261 200.366 142.048 201.128 141.622C201.895 141.19 202.491 140.582 202.918 139.798C203.349 139.009 203.565 138.08 203.565 137.011L204.213 137.148H198.963V135.273H205.611V137.148C205.611 138.585 205.304 139.835 204.69 140.898C204.082 141.96 203.241 142.784 202.168 143.369C201.099 143.949 199.872 144.239 198.486 144.239C196.94 144.239 195.582 143.875 194.412 143.148C193.247 142.42 192.338 141.386 191.685 140.045C191.037 138.705 190.713 137.114 190.713 135.273C190.713 133.892 190.898 132.651 191.267 131.548C191.642 130.44 192.17 129.497 192.852 128.719C193.534 127.94 194.341 127.344 195.273 126.929C196.205 126.514 197.23 126.307 198.349 126.307C199.27 126.307 200.128 126.446 200.923 126.724C201.724 126.997 202.438 127.386 203.062 127.892C203.693 128.392 204.219 128.991 204.639 129.69C205.06 130.384 205.349 131.153 205.509 132H203.327ZM214.276 144.273C213.094 144.273 212.058 143.991 211.165 143.429C210.279 142.866 209.586 142.08 209.086 141.068C208.592 140.057 208.344 138.875 208.344 137.523C208.344 136.159 208.592 134.969 209.086 133.952C209.586 132.935 210.279 132.145 211.165 131.582C212.058 131.02 213.094 130.739 214.276 130.739C215.458 130.739 216.492 131.02 217.379 131.582C218.271 132.145 218.964 132.935 219.458 133.952C219.958 134.969 220.208 136.159 220.208 137.523C220.208 138.875 219.958 140.057 219.458 141.068C218.964 142.08 218.271 142.866 217.379 143.429C216.492 143.991 215.458 144.273 214.276 144.273ZM214.276 142.466C215.174 142.466 215.913 142.236 216.492 141.776C217.072 141.315 217.501 140.71 217.779 139.96C218.058 139.21 218.197 138.398 218.197 137.523C218.197 136.648 218.058 135.832 217.779 135.077C217.501 134.321 217.072 133.71 216.492 133.244C215.913 132.778 215.174 132.545 214.276 132.545C213.379 132.545 212.64 132.778 212.06 133.244C211.481 133.71 211.052 134.321 210.773 135.077C210.495 135.832 210.356 136.648 210.356 137.523C210.356 138.398 210.495 139.21 210.773 139.96C211.052 140.71 211.481 141.315 212.06 141.776C212.64 142.236 213.379 142.466 214.276 142.466ZM228.222 144.273C227.131 144.273 226.168 143.997 225.332 143.446C224.497 142.889 223.844 142.105 223.372 141.094C222.901 140.077 222.665 138.875 222.665 137.489C222.665 136.114 222.901 134.92 223.372 133.909C223.844 132.898 224.5 132.116 225.341 131.565C226.182 131.014 227.153 130.739 228.256 130.739C229.108 130.739 229.781 130.881 230.276 131.165C230.776 131.443 231.156 131.761 231.418 132.119C231.685 132.472 231.892 132.761 232.04 132.989H232.21V126.545H234.222V144H232.278V141.989H232.04C231.892 142.227 231.682 142.528 231.409 142.892C231.136 143.25 230.747 143.571 230.241 143.855C229.736 144.134 229.063 144.273 228.222 144.273ZM228.494 142.466C229.301 142.466 229.983 142.256 230.54 141.835C231.097 141.409 231.52 140.821 231.81 140.071C232.099 139.315 232.244 138.443 232.244 137.455C232.244 136.477 232.102 135.622 231.818 134.889C231.534 134.151 231.114 133.577 230.557 133.168C230 132.753 229.313 132.545 228.494 132.545C227.642 132.545 226.932 132.764 226.364 133.202C225.801 133.634 225.378 134.222 225.094 134.966C224.815 135.705 224.676 136.534 224.676 137.455C224.676 138.386 224.818 139.233 225.102 139.994C225.392 140.75 225.818 141.352 226.381 141.801C226.949 142.244 227.653 142.466 228.494 142.466ZM243.503 144.273C242.321 144.273 241.284 143.991 240.392 143.429C239.506 142.866 238.812 142.08 238.312 141.068C237.818 140.057 237.571 138.875 237.571 137.523C237.571 136.159 237.818 134.969 238.312 133.952C238.812 132.935 239.506 132.145 240.392 131.582C241.284 131.02 242.321 130.739 243.503 130.739C244.685 130.739 245.719 131.02 246.605 131.582C247.497 132.145 248.19 132.935 248.685 133.952C249.185 134.969 249.435 136.159 249.435 137.523C249.435 138.875 249.185 140.057 248.685 141.068C248.19 142.08 247.497 142.866 246.605 143.429C245.719 143.991 244.685 144.273 243.503 144.273ZM243.503 142.466C244.401 142.466 245.139 142.236 245.719 141.776C246.298 141.315 246.727 140.71 247.006 139.96C247.284 139.21 247.423 138.398 247.423 137.523C247.423 136.648 247.284 135.832 247.006 135.077C246.727 134.321 246.298 133.71 245.719 133.244C245.139 132.778 244.401 132.545 243.503 132.545C242.605 132.545 241.866 132.778 241.287 133.244C240.707 133.71 240.278 134.321 240 135.077C239.722 135.832 239.582 136.648 239.582 137.523C239.582 138.398 239.722 139.21 240 139.96C240.278 140.71 240.707 141.315 241.287 141.776C241.866 142.236 242.605 142.466 243.503 142.466ZM258.198 130.909V132.614H251.414V130.909H258.198ZM253.391 127.773H255.403V140.25C255.403 140.818 255.485 141.244 255.65 141.528C255.82 141.807 256.036 141.994 256.298 142.091C256.565 142.182 256.846 142.227 257.141 142.227C257.363 142.227 257.545 142.216 257.687 142.193C257.829 142.165 257.942 142.142 258.028 142.125L258.437 143.932C258.3 143.983 258.11 144.034 257.866 144.085C257.621 144.142 257.312 144.17 256.937 144.17C256.369 144.17 255.812 144.048 255.266 143.804C254.727 143.56 254.278 143.188 253.92 142.688C253.567 142.188 253.391 141.557 253.391 140.795V127.773ZM271.826 144.307C270.996 144.307 270.244 144.151 269.567 143.838C268.891 143.52 268.354 143.062 267.957 142.466C267.559 141.864 267.36 141.136 267.36 140.284C267.36 139.534 267.508 138.926 267.803 138.46C268.099 137.989 268.494 137.619 268.988 137.352C269.482 137.085 270.028 136.886 270.624 136.756C271.227 136.619 271.832 136.511 272.44 136.432C273.235 136.33 273.88 136.253 274.374 136.202C274.874 136.145 275.238 136.051 275.465 135.92C275.698 135.79 275.815 135.562 275.815 135.239V135.17C275.815 134.33 275.585 133.676 275.124 133.21C274.67 132.744 273.979 132.511 273.053 132.511C272.093 132.511 271.34 132.722 270.795 133.142C270.249 133.562 269.866 134.011 269.644 134.489L267.735 133.807C268.076 133.011 268.531 132.392 269.099 131.949C269.673 131.5 270.298 131.187 270.974 131.011C271.656 130.83 272.326 130.739 272.985 130.739C273.406 130.739 273.888 130.79 274.434 130.892C274.985 130.989 275.516 131.19 276.028 131.497C276.545 131.804 276.974 132.267 277.315 132.886C277.656 133.506 277.826 134.335 277.826 135.375V144H275.815V142.227H275.712C275.576 142.511 275.349 142.815 275.031 143.139C274.712 143.463 274.289 143.739 273.761 143.966C273.232 144.193 272.587 144.307 271.826 144.307ZM272.133 142.5C272.928 142.5 273.599 142.344 274.144 142.031C274.695 141.719 275.11 141.315 275.388 140.821C275.673 140.327 275.815 139.807 275.815 139.261V137.42C275.729 137.523 275.542 137.616 275.252 137.702C274.968 137.781 274.638 137.852 274.263 137.915C273.894 137.972 273.533 138.023 273.181 138.068C272.835 138.108 272.553 138.142 272.337 138.17C271.815 138.239 271.326 138.349 270.871 138.503C270.423 138.651 270.059 138.875 269.781 139.176C269.508 139.472 269.371 139.875 269.371 140.386C269.371 141.085 269.63 141.614 270.147 141.972C270.67 142.324 271.332 142.5 272.133 142.5ZM283.509 136.125V144H281.497V130.909H283.44V132.955H283.611C283.918 132.29 284.384 131.756 285.009 131.352C285.634 130.943 286.44 130.739 287.429 130.739C288.315 130.739 289.091 130.92 289.756 131.284C290.42 131.642 290.938 132.188 291.307 132.92C291.676 133.648 291.861 134.568 291.861 135.682V144H289.849V135.818C289.849 134.79 289.582 133.989 289.048 133.415C288.514 132.835 287.781 132.545 286.849 132.545C286.207 132.545 285.634 132.685 285.128 132.963C284.628 133.241 284.233 133.648 283.943 134.182C283.653 134.716 283.509 135.364 283.509 136.125ZM300.479 144.273C299.388 144.273 298.425 143.997 297.59 143.446C296.755 142.889 296.102 142.105 295.63 141.094C295.158 140.077 294.923 138.875 294.923 137.489C294.923 136.114 295.158 134.92 295.63 133.909C296.102 132.898 296.758 132.116 297.599 131.565C298.44 131.014 299.411 130.739 300.513 130.739C301.366 130.739 302.039 130.881 302.533 131.165C303.033 131.443 303.414 131.761 303.675 132.119C303.942 132.472 304.15 132.761 304.298 132.989H304.468V126.545H306.479V144H304.536V141.989H304.298C304.15 142.227 303.94 142.528 303.667 142.892C303.394 143.25 303.005 143.571 302.499 143.855C301.994 144.134 301.32 144.273 300.479 144.273ZM300.752 142.466C301.559 142.466 302.241 142.256 302.798 141.835C303.354 141.409 303.778 140.821 304.067 140.071C304.357 139.315 304.502 138.443 304.502 137.455C304.502 136.477 304.36 135.622 304.076 134.889C303.792 134.151 303.371 133.577 302.815 133.168C302.258 132.753 301.57 132.545 300.752 132.545C299.9 132.545 299.19 132.764 298.621 133.202C298.059 133.634 297.636 134.222 297.352 134.966C297.073 135.705 296.934 136.534 296.934 137.455C296.934 138.386 297.076 139.233 297.36 139.994C297.65 140.75 298.076 141.352 298.638 141.801C299.207 142.244 299.911 142.466 300.752 142.466ZM327.011 130.909C326.908 130.045 326.494 129.375 325.766 128.898C325.039 128.42 324.147 128.182 323.09 128.182C322.317 128.182 321.641 128.307 321.062 128.557C320.488 128.807 320.039 129.151 319.715 129.588C319.397 130.026 319.238 130.523 319.238 131.08C319.238 131.545 319.349 131.946 319.57 132.281C319.798 132.611 320.087 132.886 320.44 133.108C320.792 133.324 321.161 133.503 321.548 133.645C321.934 133.781 322.289 133.892 322.613 133.977L324.386 134.455C324.84 134.574 325.346 134.739 325.903 134.949C326.465 135.159 327.002 135.446 327.513 135.81C328.031 136.168 328.457 136.628 328.792 137.19C329.127 137.753 329.295 138.443 329.295 139.261C329.295 140.205 329.048 141.057 328.553 141.818C328.065 142.58 327.349 143.185 326.406 143.634C325.468 144.082 324.329 144.307 322.988 144.307C321.738 144.307 320.656 144.105 319.741 143.702C318.832 143.298 318.116 142.736 317.593 142.014C317.076 141.293 316.783 140.455 316.715 139.5H318.897C318.954 140.159 319.175 140.705 319.562 141.136C319.954 141.562 320.448 141.881 321.045 142.091C321.647 142.295 322.295 142.398 322.988 142.398C323.795 142.398 324.519 142.267 325.161 142.006C325.803 141.739 326.312 141.369 326.687 140.898C327.062 140.42 327.249 139.864 327.249 139.227C327.249 138.648 327.087 138.176 326.763 137.812C326.44 137.449 326.013 137.153 325.485 136.926C324.957 136.699 324.386 136.5 323.772 136.33L321.624 135.716C320.261 135.324 319.181 134.764 318.386 134.037C317.59 133.31 317.192 132.358 317.192 131.182C317.192 130.205 317.457 129.352 317.985 128.625C318.519 127.892 319.235 127.324 320.133 126.92C321.036 126.511 322.045 126.307 323.158 126.307C324.283 126.307 325.283 126.509 326.158 126.912C327.033 127.31 327.727 127.855 328.238 128.548C328.755 129.241 329.028 130.028 329.056 130.909H327.011ZM338.156 144H332.77V126.545H338.395C340.088 126.545 341.537 126.895 342.741 127.594C343.946 128.287 344.869 129.284 345.511 130.585C346.153 131.881 346.474 133.432 346.474 135.239C346.474 137.057 346.151 138.622 345.503 139.935C344.855 141.241 343.912 142.247 342.673 142.952C341.435 143.651 339.929 144 338.156 144ZM334.884 142.125H338.02C339.463 142.125 340.659 141.847 341.608 141.29C342.557 140.733 343.264 139.94 343.73 138.912C344.196 137.884 344.429 136.659 344.429 135.239C344.429 133.83 344.199 132.616 343.739 131.599C343.278 130.577 342.591 129.793 341.676 129.247C340.761 128.696 339.622 128.42 338.259 128.42H334.884V142.125ZM350.02 144V126.545H352.134V142.125H360.247V144H350.02ZM364.713 144.136C364.293 144.136 363.932 143.986 363.631 143.685C363.33 143.384 363.179 143.023 363.179 142.602C363.179 142.182 363.33 141.821 363.631 141.52C363.932 141.219 364.293 141.068 364.713 141.068C365.134 141.068 365.494 141.219 365.795 141.52C366.097 141.821 366.247 142.182 366.247 142.602C366.247 142.881 366.176 143.136 366.034 143.369C365.898 143.602 365.713 143.79 365.48 143.932C365.253 144.068 364.997 144.136 364.713 144.136Z" fill="white"/>
<path d="M650.421 157.595H620V319.841H650.421V157.595Z" fill="black" fill-opacity="0.4"/>
<path d="M649.421 153.539H621C620.448 153.539 620 153.987 620 154.539V314.784C620 315.337 620.448 315.784 621 315.784H649.421C649.973 315.784 650.421 315.337 650.421 314.784V154.539C650.421 153.987 649.973 153.539 649.421 153.539Z" fill="white"/>
<path d="M685.912 157.595H655.491V319.841H685.912V157.595Z" fill="black" fill-opacity="0.4"/>
<path d="M685.912 153.539H655.491V315.784H685.912V153.539Z" fill="white"/>
<path d="M721.403 157.595H690.982V319.841H721.403V157.595Z" fill="black" fill-opacity="0.4"/>
<path d="M721.403 153.539H690.982V315.784H721.403V153.539Z" fill="white"/>
<path d="M756.895 157.595H726.474V319.841H756.895V157.595Z" fill="black" fill-opacity="0.4"/>
<path d="M756.895 153.539H726.474V315.784H756.895V153.539Z" fill="white"/>
<path d="M792.386 157.595H761.965V319.841H792.386V157.595Z" fill="black" fill-opacity="0.4"/>
<path d="M792.386 153.539H761.965V315.784H792.386V153.539Z" fill="white"/>
<path d="M827.877 157.595H797.456V319.841H827.877V157.595Z" fill="black" fill-opacity="0.4"/>
<path d="M827.877 153.539H797.456V315.784H827.877V153.539Z" fill="white"/>
<path d="M863.368 157.595H832.947V319.841H863.368V157.595Z" fill="black" fill-opacity="0.4"/>
<path d="M863.368 153.539H832.947V315.784H863.368V153.539Z" fill="white"/>
<path d="M898.859 157.595H868.438V319.841H898.859V157.595Z" fill="black" fill-opacity="0.4"/>
<path d="M898.859 153.539H868.438V315.784H898.859V153.539Z" fill="white"/>
<path d="M934.35 157.595H903.929V319.841H934.35V157.595Z" fill="black" fill-opacity="0.4"/>
<path d="M934.35 153.539H903.929V315.784H934.35V153.539Z" fill="white"/>
<path d="M969.841 157.595H939.42V319.841H969.841V157.595Z" fill="black" fill-opacity="0.4"/>
<path d="M969.841 153.539H939.42V315.784H969.841V153.539Z" fill="white"/>
<path d="M663.096 157.595H642.816V269.139H663.096V157.595Z" fill="black" fill-opacity="0.4"/>
<path d="M663.096 153.539H642.816V265.083H663.096V153.539Z" fill="black"/>
<path d="M698.588 157.595H678.307V269.139H698.588V157.595Z" fill="black" fill-opacity="0.4"/>
<path d="M698.588 153.539H678.307V265.083H698.588V153.539Z" fill="black"/>
<path d="M769.57 157.595H749.289V269.139H769.57V157.595Z" fill="black" fill-opacity="0.4"/>
<path d="M769.57 153.539H749.289V265.083H769.57V153.539Z" fill="black"/>
<path d="M805.061 157.595H784.78V269.139H805.061V157.595Z" fill="black" fill-opacity="0.4"/>
<path d="M805.061 153.539H784.78V265.083H805.061V153.539Z" fill="black"/>
<path d="M840.552 157.595H820.272V269.139H840.552V157.595Z" fill="black" fill-opacity="0.4"/>
<path d="M840.552 153.539H820.272V265.083H840.552V153.539Z" fill="black"/>
<path d="M911.535 157.595H891.254V269.139H911.535V157.595Z" fill="black" fill-opacity="0.4"/>
<path d="M911.535 153.539H891.254V265.083H911.535V153.539Z" fill="black"/>
<path d="M947.026 157.595H926.745V269.139H947.026V157.595Z" fill="black" fill-opacity="0.4"/>
<path d="M947.026 153.539H926.745V265.083H947.026V153.539Z" fill="black"/>
<path fill-rule="evenodd" clip-rule="evenodd" d="M406.012 257.701C406.859 258.189 407.628 259.034 408.186 260C408.745 260.966 409.091 262.055 409.091 263.032V296.968C409.091 297.945 408.744 299.034 408.186 300C407.628 300.967 406.859 301.811 406.012 302.299L376.624 319.267C374.931 320.244 372.16 320.244 370.467 319.267L341.078 302.299C340.232 301.811 339.462 300.967 338.904 300L353.027 291.846C357.13 298.925 364.791 303.697 373.545 303.697C381.977 303.697 389.841 299.16 394.067 291.855L383.812 285.921C381.696 289.577 377.762 291.849 373.545 291.849C369.168 291.849 365.338 289.463 363.286 285.923L373.545 280L363.286 285.923C362.276 284.18 361.697 282.156 361.697 280C361.697 273.467 367.012 268.152 373.545 268.152C377.762 268.152 381.696 270.423 383.811 274.079L394.067 268.144C389.84 260.84 381.977 256.303 373.545 256.303C360.479 256.303 349.848 266.934 349.848 280C349.848 284.312 351.006 288.359 353.027 291.846L338.904 300C338.346 299.034 338 297.945 338 296.968V263.032C338 261.077 339.385 258.678 341.078 257.701L370.467 240.733C372.16 239.756 374.931 239.756 376.624 240.733L406.012 257.701ZM397.242 278.684H394.609V276.051H391.976V278.684H389.343V281.316H391.976V283.95H394.609V281.316H397.242V278.684ZM404.483 278.684H407.116V281.316H404.483V283.95H401.85V281.316H399.217V278.684H401.85V276.051H404.483V278.684Z" fill="white"/>
<path d="M262.789 239C258.913 239.862 255.08 241.061 251.486 242.87C251.568 246.044 251.773 249.085 252.189 252.173C250.793 253.067 249.326 253.835 248.023 254.882C246.698 255.901 245.345 256.876 244.146 258.067C241.749 256.483 239.214 254.993 236.601 253.678C233.785 256.709 231.151 259.981 229 263.641C230.691 266.295 232.504 268.962 234.183 271.042V293.509C234.224 293.509 234.266 293.511 234.306 293.514L248.08 294.843C248.801 294.912 249.367 295.493 249.417 296.216L249.842 302.296L261.856 303.154L262.684 297.542C262.791 296.814 263.415 296.275 264.151 296.275H278.683C279.418 296.275 280.043 296.814 280.15 297.542L280.977 303.154L292.993 302.296L293.417 296.216C293.467 295.493 294.032 294.913 294.754 294.843L308.522 293.514C308.563 293.511 308.604 293.509 308.645 293.509V291.716L308.651 291.715V271.042C310.59 268.6 312.427 265.907 313.834 263.641C311.683 259.981 309.049 256.709 306.232 253.678C303.62 254.993 301.083 256.483 298.687 258.067C297.488 256.876 296.138 255.901 294.811 254.882C293.508 253.835 292.039 253.067 290.646 252.173C291.06 249.085 291.266 246.044 291.348 242.87C287.754 241.061 283.921 239.862 280.044 239C278.496 241.602 277.08 244.419 275.847 247.174C274.385 246.929 272.916 246.839 271.446 246.821V246.819C271.435 246.819 271.426 246.821 271.417 246.821C271.408 246.821 271.398 246.819 271.389 246.819V246.821C269.916 246.839 268.448 246.929 266.986 247.174C265.753 244.419 264.339 241.602 262.789 239ZM251.892 271.866C256.476 271.866 260.192 275.579 260.192 280.162C260.192 284.748 256.476 288.463 251.892 288.463C247.309 288.463 243.593 284.748 243.593 280.162C243.593 275.579 247.309 271.866 251.892 271.866ZM290.943 271.866C295.525 271.866 299.241 275.579 299.241 280.162C299.241 284.748 295.525 288.463 290.943 288.463C286.358 288.463 282.642 284.748 282.642 280.162C282.642 275.579 286.358 271.866 290.943 271.866ZM271.416 276.721C272.892 276.721 274.091 277.81 274.091 279.149V286.79C274.091 288.131 272.892 289.219 271.416 289.219C269.94 289.219 268.744 288.131 268.744 286.79V279.149C268.744 277.81 269.94 276.721 271.416 276.721Z" fill="white"/>
<path d="M296.288 297.675L295.862 303.787C295.81 304.524 295.224 305.11 294.488 305.163L279.816 306.21C279.781 306.213 279.745 306.214 279.71 306.214C278.98 306.214 278.351 305.679 278.244 304.947L277.402 299.241H265.431L264.59 304.947C264.477 305.715 263.791 306.267 263.017 306.21L248.346 305.163C247.609 305.11 247.023 304.524 246.972 303.787L246.545 297.675L234.16 296.481C234.166 297.812 234.183 299.27 234.183 299.56C234.183 312.641 250.776 318.928 271.392 319H271.442C292.058 318.928 308.645 312.641 308.645 299.56C308.645 299.265 308.663 297.813 308.669 296.481L296.288 297.675Z" fill="white"/>
<path d="M258.195 280.655C258.195 283.697 255.73 286.162 252.685 286.162C249.643 286.162 247.176 283.697 247.176 280.655C247.176 277.613 249.643 275.145 252.685 275.145C255.73 275.145 258.195 277.613 258.195 280.655Z" fill="white"/>
<path d="M284.639 280.655C284.639 283.697 287.104 286.162 290.146 286.162C293.191 286.162 295.655 283.697 295.655 280.655C295.655 277.613 293.191 275.145 290.146 275.145C287.104 275.145 284.639 277.613 284.639 280.655Z" fill="white"/>
<path fill-rule="evenodd" clip-rule="evenodd" d="M125 280C125 257.908 142.908 240 165 240C187.092 240 205 257.908 205 280C205 302.092 187.092 320 165 320C142.908 320 125 302.092 125 280ZM171.308 297.822L175.233 302.238C185.013 297.62 188.08 289.085 188.773 285.76C185.195 289.423 181.24 293.135 178.577 290.565C178.577 290.565 178.432 276.853 178.432 271.228C178.432 263.663 185.602 258.028 185.602 258.028C181.66 258.73 176.923 260.135 171.898 265.068C171.444 265.518 171.013 265.991 170.607 266.485C168.452 264.835 165.66 265.333 165.66 265.333C167.17 266.16 168.678 268.575 168.678 270.573V290.21C168.678 290.21 165.388 293.102 162.853 293.102C162.281 293.108 161.716 292.976 161.206 292.718C160.696 292.46 160.255 292.084 159.92 291.62C159.719 291.357 159.553 291.07 159.425 290.765V266.5C158.675 267.12 156.142 267.63 156.142 263.425C156.142 260.812 158.028 257.7 161.377 255.79C156.776 256.492 152.466 258.48 148.945 261.525C146.27 263.837 144.131 266.703 142.677 269.925C141.222 273.147 140.486 276.647 140.52 280.182C140.52 280.182 142.973 272.525 146.04 271.82C146.487 271.702 146.956 271.69 147.408 271.785C147.86 271.881 148.284 272.081 148.646 272.369C149.007 272.657 149.296 273.026 149.49 273.446C149.683 273.866 149.776 274.325 149.76 274.787V292.77C149.76 294.592 148.585 294.99 147.5 294.97C146.764 294.919 146.036 294.781 145.333 294.56C147.573 297.594 150.485 300.069 153.841 301.791C157.197 303.512 160.906 304.435 164.678 304.485L171.308 297.822Z" fill="white"/>
<path d="M68.664 254.313L81.38 261.623C81.8375 261.879 81.854 262.591 81.38 262.848L66.2704 271.54C65.8132 271.805 65.273 271.788 64.8491 271.54L49.7393 262.848C49.2738 262.599 49.2655 261.871 49.7393 261.623L62.4472 254.313V240L30 258.659V295.977L42.442 288.825V274.205C42.4337 273.684 43.0487 273.311 43.5058 273.593L58.6157 282.285C59.0728 282.55 59.3305 283.022 59.3305 283.51V300.886C59.3388 301.408 58.7237 301.78 58.2666 301.498L45.5504 294.188L33.1084 301.341L65.5556 320L98.0025 301.341L85.561 294.188L72.8446 301.498C72.3958 301.771 71.7641 301.416 71.7807 300.886V283.51C71.7807 282.988 72.0716 282.525 72.4955 282.285L87.6055 273.593C88.054 273.32 88.686 273.667 88.669 274.205V288.825L101.111 295.977V258.659L68.664 240V254.313Z" fill="white"/>
</g>
<defs>
<linearGradient id="paint0_linear_1_2" x1="460.5" y1="33.5" x2="669.54" y2="524.843" gradientUnits="userSpaceOnUse">
<stop stop-color="#081457"/>
<stop offset="1" stop-color="#A800A5"/>
</linearGradient>
<clipPath id="clip0_1_2">
<rect width="1000" height="350" rx="10" fill="white"/>
</clipPath>
</defs>
</svg>
