<svg xmlns="http://www.w3.org/2000/svg" width="1000" height="350" fill="none"><g clip-path="url(#a)"><rect width="1000" height="350" fill="#6C60CB" rx="10"/><path fill="url(#b)" d="M0 0h1000v350H0z"/><path fill="#fff" d="M31.046 77V30.454h18.363q5.273 0 9 1.887 3.75 1.864 5.705 5.295 1.977 3.41 1.977 8.023 0 4.637-2 7.977-2 3.319-5.795 5.091-3.773 1.773-9.137 1.773H36.864v-7.91h10.704q2.819 0 4.682-.772 1.864-.773 2.773-2.318.93-1.545.931-3.84 0-2.32-.931-3.91-.909-1.59-2.796-2.41-1.863-.84-4.704-.84h-6.637V77zm25.136-21.182L67.75 77H56.886L45.568 55.818zm26.364 1V77h-9.682V30.454h9.409V48.25h.409q1.181-3.09 3.818-4.84 2.637-1.774 6.614-1.774 3.636 0 6.34 1.591 2.728 1.568 4.228 4.523 1.522 2.932 1.5 7.023V77H95.5V56.5q.023-3.227-1.636-5.023-1.637-1.795-4.591-1.795-1.978 0-3.5.84-1.5.842-2.364 2.455-.84 1.59-.864 3.841m34.982 33.273q-1.84 0-3.454-.295-1.592-.273-2.636-.705l2.181-7.227q1.705.522 3.069.568 1.386.045 2.386-.636 1.023-.682 1.659-2.319l.568-1.477-12.523-35.91h10.182l7.228 25.637h.363l7.296-25.636h10.25l-13.569 38.682q-.976 2.818-2.659 4.909-1.659 2.113-4.204 3.25-2.546 1.159-6.137 1.159m50.091-48v7.273h-21.022V42.09zm-16.25-8.364h9.682v32.546q0 1.34.409 2.09.41.728 1.137 1.023.75.296 1.727.296a8.3 8.3 0 0 0 1.364-.114q.682-.136 1.045-.204l1.523 7.204q-.727.228-2.046.523-1.319.317-3.204.386-3.5.136-6.137-.931-2.613-1.07-4.068-3.319-1.455-2.25-1.432-5.681zm32.989 23.091V77h-9.682V30.454h9.409V48.25h.409q1.182-3.09 3.818-4.84 2.637-1.774 6.614-1.774 3.636 0 6.341 1.591 2.727 1.568 4.227 4.523 1.522 2.932 1.5 7.023V77h-9.682V56.5q.023-3.227-1.636-5.023-1.636-1.795-4.591-1.795-1.977 0-3.5.84-1.5.842-2.363 2.455-.842 1.59-.864 3.841M214.614 77V42.09h9.227v6.16h.409q1.09-3.069 3.636-4.84 2.546-1.774 6.091-1.774 3.591 0 6.114 1.796 2.523 1.773 3.364 4.818h.363q1.068-3 3.864-4.795 2.818-1.82 6.659-1.819 4.886 0 7.932 3.114 3.068 3.09 3.068 8.773V77h-9.659V55.432q0-2.91-1.546-4.364-1.545-1.454-3.863-1.454-2.637 0-4.114 1.681-1.477 1.66-1.477 4.387V77h-9.387V55.227q0-2.568-1.477-4.09-1.455-1.524-3.841-1.523-1.613 0-2.909.818-1.273.795-2.023 2.25-.75 1.432-.75 3.363V77zm104.233-31.5q-.479-1.659-1.341-2.932a8.3 8.3 0 0 0-2.114-2.182A9.1 9.1 0 0 0 312.574 39q-1.569-.477-3.477-.477-3.569 0-6.273 1.772-2.682 1.773-4.182 5.16-1.5 3.363-1.5 8.227 0 4.863 1.477 8.273 1.478 3.408 4.182 5.204 2.704 1.773 6.387 1.773 3.34 0 5.704-1.182 2.387-1.205 3.636-3.386 1.273-2.182 1.273-5.16l2 .296h-12v-7.41h19.477v5.865q0 6.136-2.59 10.545-2.592 4.386-7.137 6.773-4.545 2.364-10.409 2.363-6.546 0-11.5-2.886-4.955-2.91-7.727-8.25-2.75-5.364-2.75-12.727 0-5.66 1.636-10.091 1.66-4.455 4.637-7.546a20 20 0 0 1 6.931-4.704q3.955-1.614 8.569-1.614 3.954 0 7.363 1.16 3.41 1.136 6.046 3.227a17.5 17.5 0 0 1 4.341 4.977q1.681 2.864 2.159 6.318zm27.596 32.16q-3.34 0-5.954-1.16-2.614-1.182-4.137-3.477-1.5-2.319-1.5-5.773 0-2.91 1.068-4.886a8.65 8.65 0 0 1 2.91-3.182q1.84-1.205 4.181-1.818a32 32 0 0 1 4.955-.864q3.045-.319 4.909-.59 1.863-.297 2.705-.864.84-.57.84-1.682v-.137q0-2.16-1.363-3.34-1.341-1.182-3.818-1.182-2.614 0-4.159 1.159-1.546 1.136-2.046 2.863L336.08 52q.681-3.182 2.681-5.5 2-2.341 5.159-3.59 3.183-1.274 7.364-1.274 2.91 0 5.568.682 2.682.683 4.75 2.114a10.3 10.3 0 0 1 3.296 3.682q1.204 2.227 1.204 5.34V77h-9.182v-4.84h-.272a9.9 9.9 0 0 1-2.25 2.886q-1.41 1.227-3.387 1.931-1.977.682-4.568.682m2.773-6.683q2.136 0 3.773-.84 1.637-.865 2.568-2.319.932-1.455.932-3.295v-3.705q-.455.295-1.25.546-.774.227-1.75.431-.978.182-1.955.341l-1.773.25q-1.704.25-2.977.796-1.272.545-1.977 1.477-.705.91-.705 2.273 0 1.977 1.432 3.022 1.455 1.023 3.682 1.023M373.614 77V42.09h9.227v6.16h.409q1.09-3.069 3.636-4.84 2.546-1.774 6.091-1.774 3.591 0 6.114 1.796 2.523 1.773 3.364 4.818h.363q1.068-3 3.864-4.795 2.818-1.82 6.659-1.819 4.886 0 7.932 3.114 3.068 3.09 3.068 8.773V77h-9.659V55.432q0-2.91-1.546-4.364-1.545-1.454-3.863-1.454-2.637 0-4.114 1.681-1.477 1.66-1.477 4.387V77h-9.387V55.227q0-2.568-1.477-4.09-1.455-1.524-3.841-1.523-1.613 0-2.909.818-1.273.795-2.023 2.25-.75 1.432-.75 3.363V77zm74.284.682q-5.386 0-9.273-2.182-3.864-2.205-5.955-6.227-2.09-4.046-2.09-9.568 0-5.387 2.09-9.455 2.091-4.069 5.887-6.34 3.818-2.274 8.954-2.274 3.454 0 6.432 1.114a14.3 14.3 0 0 1 5.227 3.295q2.25 2.205 3.5 5.546 1.25 3.318 1.25 7.773v2.659h-29.477v-6h20.364q0-2.092-.909-3.705a6.5 6.5 0 0 0-2.523-2.523q-1.59-.93-3.705-.931-2.204 0-3.909 1.022a7.17 7.17 0 0 0-2.636 2.705q-.954 1.681-.977 3.75v5.704q0 2.592.954 4.478.977 1.886 2.75 2.909t4.205 1.022q1.614 0 2.954-.454a6.1 6.1 0 0 0 2.296-1.364 5.9 5.9 0 0 0 1.454-2.227l8.955.591q-.682 3.227-2.796 5.636-2.09 2.387-5.409 3.728-3.295 1.317-7.613 1.318m66.085-47.228h9.841v30.228q0 5.091-2.432 8.909-2.409 3.817-6.75 5.955-4.34 2.112-10.114 2.113-5.795 0-10.136-2.114-4.341-2.136-6.75-5.954t-2.409-8.91V30.456h9.841V59.84q0 2.659 1.159 4.727 1.182 2.068 3.318 3.25T504.528 69q2.865 0 4.978-1.182 2.136-1.182 3.295-3.25 1.182-2.068 1.182-4.727zm36.324 11.637v7.273h-21.023V42.09zm-16.25-8.364h9.682v32.546q0 1.34.409 2.09.408.728 1.136 1.023.75.296 1.727.296.682 0 1.364-.114.682-.136 1.045-.204l1.523 7.204q-.727.228-2.045.523-1.318.317-3.205.386-3.5.136-6.136-.931-2.615-1.07-4.068-3.319-1.455-2.25-1.432-5.681zM556.614 77V42.09h9.681V77zm4.863-39.41q-2.159 0-3.704-1.43-1.523-1.455-1.523-3.478 0-2.001 1.523-3.432 1.545-1.454 3.704-1.454t3.682 1.454q1.546 1.432 1.546 3.432 0 2.022-1.546 3.477-1.522 1.432-3.682 1.432m22.256-7.136V77h-9.682V30.454zM591.489 77V42.09h9.681V77zm4.863-39.41q-2.159 0-3.704-1.43-1.523-1.455-1.523-3.478 0-2.001 1.523-3.432 1.545-1.454 3.704-1.454t3.682 1.454q1.546 1.432 1.546 3.432 0 2.022-1.546 3.477-1.522 1.432-3.682 1.432m31.142 4.5v7.274h-21.022V42.09zm-16.25-8.363h9.682v32.546q0 1.34.409 2.09.41.728 1.137 1.023.75.296 1.727.296a8 8 0 0 0 1.363-.114q.683-.136 1.046-.204l1.523 7.204q-.728.228-2.046.523-1.319.317-3.204.386-3.5.136-6.137-.931-2.613-1.07-4.068-3.319-1.455-2.25-1.432-5.681zM633.801 77V42.09h9.682V77zm4.864-39.41q-2.16 0-3.705-1.43-1.522-1.455-1.522-3.478 0-2.001 1.522-3.432 1.546-1.454 3.705-1.454t3.682 1.454q1.545 1.432 1.545 3.432 0 2.022-1.545 3.477-1.524 1.432-3.682 1.432m28.483 40.092q-5.386 0-9.273-2.182-3.864-2.205-5.955-6.227-2.09-4.046-2.09-9.568 0-5.387 2.09-9.455 2.091-4.069 5.887-6.34 3.818-2.274 8.954-2.274 3.455 0 6.432 1.114a14.3 14.3 0 0 1 5.227 3.295q2.25 2.205 3.5 5.546 1.25 3.318 1.25 7.773v2.659h-29.477v-6h20.364q0-2.092-.909-3.705a6.5 6.5 0 0 0-2.523-2.523q-1.59-.93-3.705-.931-2.204 0-3.909 1.022a7.17 7.17 0 0 0-2.636 2.705q-.954 1.681-.977 3.75v5.704q0 2.592.954 4.478.978 1.886 2.75 2.909t4.205 1.022q1.613 0 2.954-.454a6.1 6.1 0 0 0 2.296-1.364 5.9 5.9 0 0 0 1.454-2.227l8.955.591q-.682 3.227-2.796 5.636-2.09 2.387-5.409 3.728-3.295 1.317-7.613 1.318m51.386-25.637-8.864.546a4.6 4.6 0 0 0-.977-2.046q-.75-.93-1.977-1.477-1.204-.568-2.886-.568-2.25 0-3.796.955-1.545.93-1.545 2.5 0 1.25 1 2.113 1 .864 3.431 1.387l6.319 1.272q5.09 1.046 7.591 3.364 2.5 2.318 2.5 6.09 0 3.433-2.023 6.023-2 2.591-5.5 4.046-3.477 1.431-8.023 1.432-6.932 0-11.045-2.886-4.091-2.91-4.796-7.91l9.523-.5q.432 2.114 2.091 3.228 1.66 1.09 4.25 1.09 2.545 0 4.091-.977 1.567-1 1.591-2.568-.024-1.318-1.114-2.159-1.09-.864-3.364-1.318l-6.045-1.205q-5.113-1.022-7.614-3.545-2.477-2.523-2.477-6.432 0-3.363 1.818-5.795 1.84-2.433 5.159-3.75 3.342-1.32 7.818-1.319 6.614 0 10.41 2.796 3.818 2.795 4.454 7.613M32.83 115h-2.216l6.409-17.454h2.182L45.614 115h-2.216l-5.216-14.693h-.137zm.818-6.818h8.932v1.875h-8.932zm26.48 7.091q-1.84 0-3.17-.87-1.33-.868-2.046-2.394t-.716-3.486q0-1.995.733-3.52.741-1.534 2.063-2.395 1.329-.87 3.102-.869 1.38 0 2.488.511a4.76 4.76 0 0 1 1.816 1.432q.707.92.878 2.148h-2.012q-.23-.895-1.023-1.586-.783-.699-2.113-.699-1.176 0-2.063.614-.877.605-1.372 1.713-.486 1.1-.486 2.583 0 1.517.478 2.642.485 1.125 1.363 1.747.886.622 2.08.622.784 0 1.423-.273a2.9 2.9 0 0 0 1.082-.784q.444-.511.631-1.227h2.012a4.66 4.66 0 0 1-.844 2.088q-.665.92-1.764 1.466-1.091.537-2.54.537m13.406 0q-1.773 0-3.11-.844-1.33-.844-2.08-2.361-.742-1.517-.742-3.545 0-2.046.742-3.571.75-1.525 2.08-2.37 1.337-.843 3.11-.843t3.102.843q1.338.844 2.08 2.37.75 1.525.75 3.571 0 2.028-.75 3.545-.742 1.517-2.08 2.361-1.329.843-3.102.844m0-1.807q1.346 0 2.216-.69.87-.691 1.287-1.816t.417-2.437q0-1.313-.417-2.446-.418-1.134-1.287-1.833-.87-.699-2.216-.699t-2.216.699-1.287 1.833a7 7 0 0 0-.417 2.446q0 1.312.417 2.437.418 1.125 1.287 1.816.87.69 2.216.69m11.014-15.92V115h-2.012V97.546zm5.695 0V115h-2.011V97.546zm9.173 17.727q-1.893 0-3.265-.835-1.363-.844-2.105-2.353-.733-1.516-.733-3.528t.733-3.546q.741-1.542 2.063-2.403 1.329-.87 3.102-.869 1.023 0 2.02.341.998.34 1.815 1.108.819.758 1.304 2.011.486 1.252.486 3.085v.852H94.745v-1.738h8.045q0-1.108-.443-1.978a3.34 3.34 0 0 0-1.244-1.372q-.801-.503-1.892-.503-1.201 0-2.08.597a3.9 3.9 0 0 0-1.338 1.534 4.5 4.5 0 0 0-.468 2.029v1.159q0 1.482.51 2.514.522 1.023 1.441 1.56.92.528 2.14.528.792 0 1.431-.222.648-.23 1.117-.682.468-.46.724-1.142l1.943.546a4.3 4.3 0 0 1-1.031 1.739 5 5 0 0 1-1.79 1.159q-1.065.409-2.395.409m13.798 0q-1.84 0-3.171-.87-1.33-.868-2.045-2.394-.716-1.526-.716-3.486 0-1.995.733-3.52.742-1.534 2.062-2.395 1.33-.87 3.103-.869 1.38 0 2.488.511a4.77 4.77 0 0 1 1.816 1.432 4.47 4.47 0 0 1 .878 2.148h-2.012q-.23-.895-1.023-1.586-.784-.699-2.113-.699-1.176 0-2.063.614-.877.605-1.372 1.713-.486 1.1-.486 2.583 0 1.517.478 2.642.485 1.125 1.363 1.747.886.622 2.08.622.784 0 1.423-.273a2.9 2.9 0 0 0 1.082-.784 3 3 0 0 0 .631-1.227h2.012a4.66 4.66 0 0 1-.844 2.088q-.665.92-1.764 1.466-1.091.537-2.54.537m13.781-13.364v1.705h-6.784v-1.705zm-4.807-3.136h2.012v12.477q0 .852.247 1.278.255.418.647.563.402.136.844.136.333 0 .546-.034l.341-.068.409 1.807a4 4 0 0 1-.571.153 4.2 4.2 0 0 1-.929.085 4.05 4.05 0 0 1-1.671-.366 3.3 3.3 0 0 1-1.346-1.116q-.53-.75-.529-1.893zM130.021 115v-13.091h2.011V115zm1.022-15.273a1.43 1.43 0 0 1-1.014-.4 1.29 1.29 0 0 1-.417-.963q0-.562.417-.963a1.43 1.43 0 0 1 1.014-.401 1.4 1.4 0 0 1 1.006.4q.426.402.426.964 0 .563-.426.963a1.4 1.4 0 0 1-1.006.4m9.991 15.546q-1.773 0-3.111-.844-1.329-.844-2.079-2.361-.742-1.517-.742-3.545 0-2.046.742-3.571.75-1.525 2.079-2.37 1.338-.843 3.111-.843t3.102.843q1.339.844 2.08 2.37.75 1.525.75 3.571 0 2.028-.75 3.545-.741 1.517-2.08 2.361-1.329.843-3.102.844m0-1.807q1.346 0 2.216-.69.87-.691 1.287-1.816t.418-2.437q0-1.313-.418-2.446-.417-1.134-1.287-1.833t-2.216-.699-2.216.699-1.287 1.833a7 7 0 0 0-.417 2.446q0 1.312.417 2.437.418 1.125 1.287 1.816.87.69 2.216.69m11.014-6.341V115h-2.012v-13.091h1.943v2.046h.171a3.74 3.74 0 0 1 1.398-1.603q.937-.613 2.42-.613 1.33 0 2.327.545.997.538 1.551 1.636.554 1.091.554 2.762V115h-2.012v-8.182q0-1.542-.801-2.403-.801-.87-2.199-.87-.963 0-1.721.418-.75.418-1.185 1.219-.434.801-.434 1.943m24.095 8.148q-1.772 0-3.11-.844-1.33-.844-2.08-2.361-.741-1.517-.741-3.545 0-2.046.741-3.571.75-1.525 2.08-2.37 1.338-.843 3.11-.843 1.773 0 3.103.843 1.338.844 2.079 2.37.75 1.525.75 3.571 0 2.028-.75 3.545-.741 1.517-2.079 2.361-1.33.843-3.103.844m0-1.807q1.347 0 2.216-.69.87-.691 1.287-1.816.418-1.125.418-2.437 0-1.313-.418-2.446-.417-1.134-1.287-1.833t-2.216-.699-2.215.699q-.87.699-1.287 1.833a7 7 0 0 0-.418 2.446q0 1.312.418 2.437.417 1.125 1.287 1.816.869.69 2.215.69m14.832-11.557v1.705h-7.057v-1.705zM186.032 115v-14.898q0-1.125.528-1.875.529-.75 1.373-1.125a4.3 4.3 0 0 1 1.781-.375q.742 0 1.21.12.469.12.699.221l-.58 1.739a10 10 0 0 0-.426-.128 2.6 2.6 0 0 0-.699-.077q-.997 0-1.44.503-.435.503-.435 1.475V115zm22.762-5.352v-7.739h2.011V115h-2.011v-2.216h-.136q-.46.997-1.432 1.696-.972.69-2.455.69-1.227 0-2.182-.536-.954-.546-1.5-1.637-.545-1.1-.545-2.77v-8.318h2.011v8.182q0 1.431.802 2.284.809.852 2.062.852.75 0 1.526-.383.784-.384 1.312-1.176.537-.793.537-2.02m11.389-7.739v1.705h-6.785v-1.705zm-4.807-3.136h2.011v12.477q0 .852.247 1.278.256.418.648.563.4.136.844.136.332 0 .545-.034l.341-.068.409 1.807a4 4 0 0 1-.571.153 4.2 4.2 0 0 1-.929.085 4.05 4.05 0 0 1-1.67-.366 3.3 3.3 0 0 1-1.347-1.116q-.528-.75-.528-1.893zM223.208 115v-13.091h2.011V115zm1.023-15.273a1.43 1.43 0 0 1-1.014-.4 1.29 1.29 0 0 1-.418-.963q0-.562.418-.963a1.43 1.43 0 0 1 1.014-.401q.588 0 1.006.4.426.402.426.964 0 .563-.426.963-.418.4-1.006.4m6.684-2.181V115h-2.012V97.546zM234.599 115v-13.091h2.011V115zm1.022-15.273a1.43 1.43 0 0 1-1.014-.4 1.29 1.29 0 0 1-.417-.963q0-.562.417-.963a1.43 1.43 0 0 1 1.014-.401 1.4 1.4 0 0 1 1.006.4q.426.402.426.964 0 .563-.426.963a1.4 1.4 0 0 1-1.006.4m10.366 2.182v1.705h-6.784v-1.705zm-4.807-3.136h2.012v12.477q0 .852.247 1.278.255.418.648.563.4.136.843.136.333 0 .546-.034l.341-.068.409 1.807a4 4 0 0 1-.571.153 4.2 4.2 0 0 1-.929.085 4.1 4.1 0 0 1-1.671-.366 3.3 3.3 0 0 1-1.346-1.116q-.529-.75-.529-1.893zM249.013 115v-13.091h2.011V115zm1.023-15.273a1.43 1.43 0 0 1-1.015-.4 1.29 1.29 0 0 1-.417-.963q0-.562.417-.963a1.43 1.43 0 0 1 1.015-.401q.588 0 1.005.4.426.402.426.964 0 .563-.426.963-.417.4-1.005.4m10.161 15.546q-1.893 0-3.264-.835-1.364-.844-2.106-2.353-.733-1.516-.733-3.528t.733-3.546q.742-1.542 2.063-2.403 1.329-.87 3.102-.869 1.023 0 2.02.341.998.34 1.815 1.108.82.758 1.304 2.011.486 1.252.486 3.085v.852h-10.091v-1.738h8.046q0-1.108-.443-1.978a3.35 3.35 0 0 0-1.245-1.372q-.801-.503-1.892-.503-1.202 0-2.079.597a3.9 3.9 0 0 0-1.338 1.534 4.5 4.5 0 0 0-.469 2.029v1.159q0 1.482.511 2.514.52 1.023 1.441 1.56.92.528 2.139.528.792 0 1.432-.222.647-.23 1.116-.682.47-.46.724-1.142l1.944.546a4.3 4.3 0 0 1-1.032 1.739 5 5 0 0 1-1.789 1.159q-1.066.409-2.395.409m17.753-10.432-1.807.511a3.4 3.4 0 0 0-.503-.878 2.44 2.44 0 0 0-.886-.715q-.563-.282-1.441-.282-1.202 0-2.003.554-.792.546-.792 1.389 0 .75.545 1.185.546.435 1.705.725l1.943.477q1.756.426 2.616 1.304.861.868.861 2.241 0 1.125-.648 2.012-.639.886-1.789 1.397-1.15.512-2.676.512-2.004 0-3.316-.87-1.312-.869-1.662-2.539l1.909-.478q.273 1.057 1.032 1.586.767.528 2.002.528 1.407 0 2.233-.597.836-.605.836-1.448 0-.683-.478-1.143-.476-.468-1.466-.698l-2.181-.512q-1.799-.426-2.642-1.321-.836-.903-.836-2.258 0-1.108.623-1.961.63-.852 1.713-1.338 1.09-.485 2.471-.485 1.944 0 3.051.852 1.117.852 1.586 2.25m15.845-2.932v1.705h-7.056v-1.705zM288.852 115v-14.898q0-1.125.529-1.875a3.27 3.27 0 0 1 1.372-1.125 4.3 4.3 0 0 1 1.781-.375q.742 0 1.21.12.47.12.699.221l-.579 1.739a11 11 0 0 0-.426-.128 2.6 2.6 0 0 0-.699-.077q-.997 0-1.441.503-.434.503-.434 1.475V115zm12.541.273q-1.772 0-3.11-.844-1.33-.844-2.08-2.361-.741-1.517-.741-3.545 0-2.046.741-3.571.75-1.525 2.08-2.37 1.338-.843 3.11-.843 1.773 0 3.103.843 1.338.844 2.079 2.37.75 1.525.75 3.571 0 2.028-.75 3.545-.741 1.517-2.079 2.361-1.33.843-3.103.844m0-1.807q1.347 0 2.216-.69.87-.691 1.287-1.816.418-1.125.418-2.437 0-1.313-.418-2.446-.417-1.134-1.287-1.833t-2.216-.699-2.215.699-1.287 1.833a7 7 0 0 0-.418 2.446q0 1.312.418 2.437.417 1.125 1.287 1.816.869.69 2.215.69m9.003 1.534v-13.091h1.943v1.977h.136q.359-.971 1.296-1.576a3.8 3.8 0 0 1 2.113-.605q.222 0 .554.008t.503.026v2.045a6 6 0 0 0-.469-.077 5 5 0 0 0-.758-.059q-.955 0-1.705.4a3.03 3.03 0 0 0-1.176 1.091 2.94 2.94 0 0 0-.426 1.577V115zm20.997.273q-1.84 0-3.17-.87-1.33-.868-2.045-2.394-.716-1.526-.716-3.486 0-1.995.733-3.52.74-1.534 2.062-2.395 1.33-.87 3.102-.869 1.381 0 2.489.511a4.76 4.76 0 0 1 1.815 1.432 4.45 4.45 0 0 1 .878 2.148h-2.011q-.23-.895-1.023-1.586-.784-.699-2.114-.699-1.176 0-2.062.614-.878.605-1.372 1.713-.486 1.1-.486 2.583 0 1.517.477 2.642.486 1.125 1.364 1.747.887.622 2.079.622a3.6 3.6 0 0 0 1.424-.273 2.9 2.9 0 0 0 1.082-.784 3 3 0 0 0 .631-1.227h2.011a4.65 4.65 0 0 1-.844 2.088q-.664.92-1.764 1.466-1.09.537-2.54.537m8.089-.273v-13.091h1.943v1.977h.136q.358-.971 1.296-1.576a3.8 3.8 0 0 1 2.113-.605q.222 0 .554.008t.503.026v2.045a6 6 0 0 0-.469-.077 5 5 0 0 0-.758-.059q-.955 0-1.705.4a3.03 3.03 0 0 0-1.176 1.091 2.94 2.94 0 0 0-.426 1.577V115zm14.019.273q-1.892 0-3.264-.835-1.364-.844-2.105-2.353-.733-1.516-.733-3.528t.733-3.546q.741-1.542 2.063-2.403 1.329-.87 3.102-.869 1.023 0 2.02.341.998.34 1.815 1.108.819.758 1.304 2.011.486 1.252.486 3.085v.852h-10.091v-1.738h8.045q0-1.108-.443-1.978a3.35 3.35 0 0 0-1.244-1.372q-.801-.503-1.892-.503-1.201 0-2.08.597a3.93 3.93 0 0 0-1.338 1.534 4.5 4.5 0 0 0-.468 2.029v1.159q0 1.482.511 2.514.52 1.023 1.44 1.56.921.528 2.139.528.793 0 1.432-.222.648-.23 1.117-.682.469-.46.724-1.142l1.943.546a4.3 4.3 0 0 1-1.031 1.739 5 5 0 0 1-1.79 1.159q-1.065.409-2.395.409m12.333.034q-1.245 0-2.259-.469a3.9 3.9 0 0 1-1.611-1.372q-.596-.903-.596-2.182 0-1.125.443-1.824.443-.707 1.185-1.108a6.2 6.2 0 0 1 1.636-.596 20 20 0 0 1 1.815-.324 83 83 0 0 1 1.935-.23q.75-.085 1.091-.282.35-.196.349-.681v-.069q0-1.26-.69-1.96-.681-.699-2.071-.699-1.44 0-2.258.631-.818.63-1.151 1.347l-1.909-.682q.511-1.194 1.364-1.858a5.1 5.1 0 0 1 1.875-.938 7.8 7.8 0 0 1 2.011-.272 8 8 0 0 1 1.449.153 4.7 4.7 0 0 1 1.594.605q.776.46 1.286 1.389.512.93.512 2.489V115h-2.012v-1.773h-.102q-.204.426-.682.912-.477.486-1.27.827-.792.34-1.934.341m.307-1.807q1.193 0 2.011-.469.827-.468 1.244-1.21a3.1 3.1 0 0 0 .426-1.56v-1.841q-.127.154-.562.282a10 10 0 0 1-.989.213q-.554.086-1.082.153-.52.06-.844.102a7.7 7.7 0 0 0-1.466.333q-.673.222-1.091.673-.409.444-.409 1.21 0 1.049.776 1.586.784.528 1.986.528m15.057-11.591v1.705h-6.784v-1.705zm-4.807-3.136h2.012v12.477q0 .852.247 1.278.255.418.648.563.4.136.843.136.333 0 .546-.034l.341-.068.409 1.807a4 4 0 0 1-.571.153 4.2 4.2 0 0 1-.929.085 4.1 4.1 0 0 1-1.671-.366 3.3 3.3 0 0 1-1.346-1.116q-.53-.75-.529-1.893zM384.224 115v-13.091h2.011V115zm1.022-15.273a1.43 1.43 0 0 1-1.014-.4 1.29 1.29 0 0 1-.417-.963q0-.562.417-.963a1.43 1.43 0 0 1 1.014-.401 1.4 1.4 0 0 1 1.006.4q.426.402.426.964 0 .563-.426.963a1.4 1.4 0 0 1-1.006.4m6.684 7.398V115h-2.011v-13.091h1.943v2.046h.171a3.74 3.74 0 0 1 1.397-1.603q.937-.613 2.421-.613 1.33 0 2.327.545.996.538 1.551 1.636.554 1.091.554 2.762V115h-2.012v-8.182q0-1.542-.801-2.403-.801-.87-2.199-.87-.963 0-1.721.418-.75.418-1.185 1.219t-.435 1.943m17.312 13.057q-1.457 0-2.505-.375-1.049-.367-1.748-.972a5.3 5.3 0 0 1-1.099-1.278l1.602-1.125q.273.357.691.818.417.468 1.142.81.732.35 1.917.349 1.585 0 2.617-.767 1.03-.766 1.031-2.403v-2.659h-.171q-.22.358-.63.886-.401.52-1.159.929-.75.4-2.029.4-1.585 0-2.846-.75-1.253-.75-1.986-2.181-.725-1.432-.725-3.478 0-2.011.708-3.502.707-1.5 1.969-2.319 1.261-.826 2.914-.826 1.28 0 2.029.426.758.417 1.159.954.41.529.631.87h.204v-2.08h1.943v13.466q0 1.688-.767 2.744-.758 1.066-2.045 1.56-1.278.503-2.847.503m-.068-7.193q1.21 0 2.045-.554.836-.555 1.27-1.594t.435-2.489q0-1.414-.426-2.497t-1.261-1.696q-.836-.614-2.063-.614-1.278 0-2.131.648-.843.648-1.27 1.739-.417 1.09-.417 2.42 0 1.363.426 2.412.435 1.04 1.278 1.637.853.588 2.114.588M425.333 115v-13.091h1.943v1.977h.137q.357-.971 1.295-1.576a3.8 3.8 0 0 1 2.114-.605q.22 0 .554.008.332.008.503.026v2.045a6 6 0 0 0-.469-.077 5 5 0 0 0-.759-.059q-.954 0-1.704.4a3 3 0 0 0-1.176 1.091q-.427.69-.427 1.577V115zm10.941-7.875V115h-2.011V97.546h2.011v6.409h.171a3.7 3.7 0 0 1 1.38-1.611q.93-.605 2.472-.605 1.338 0 2.344.537 1.005.528 1.559 1.627.563 1.092.563 2.779V115h-2.012v-8.182q0-1.56-.809-2.412-.801-.861-2.225-.861-.989 0-1.772.418a3.05 3.05 0 0 0-1.228 1.219q-.443.801-.443 1.943m12.995 12.784q-.511 0-.912-.085-.4-.076-.554-.154l.512-1.772q.732.187 1.295.136t.997-.503q.444-.442.81-1.44l.375-1.023-4.841-13.159h2.182l3.613 10.432h.137l3.613-10.432h2.182l-5.557 15q-.375 1.014-.929 1.679a3.5 3.5 0 0 1-1.286.997q-.725.324-1.637.324m17.757-18v1.705h-6.784v-1.705zm-4.807-3.136h2.012v12.477q0 .852.247 1.278.255.418.648.563.4.136.843.136.333 0 .546-.034l.341-.068.409 1.807a4 4 0 0 1-.571.153 4.2 4.2 0 0 1-.929.085 4.1 4.1 0 0 1-1.671-.366 3.3 3.3 0 0 1-1.346-1.116q-.529-.75-.529-1.893zm10.125 8.352V115h-2.011V97.546h2.011v6.409h.171a3.7 3.7 0 0 1 1.381-1.611q.929-.605 2.471-.605 1.338 0 2.344.537 1.005.528 1.56 1.627.562 1.092.562 2.779V115h-2.011v-8.182q0-1.56-.81-2.412-.8-.861-2.224-.861-.988 0-1.773.418a3.05 3.05 0 0 0-1.227 1.219q-.444.801-.444 1.943M484.513 115v-13.091h1.943v2.046h.17a3.3 3.3 0 0 1 1.321-1.628q.913-.588 2.191-.588 1.295 0 2.156.588.87.58 1.355 1.628h.137a3.8 3.8 0 0 1 1.508-1.611q1.005-.605 2.412-.605 1.755 0 2.872 1.099 1.117 1.09 1.117 3.401V115h-2.012v-8.761q0-1.45-.792-2.071-.793-.623-1.867-.623-1.38 0-2.139.836-.759.827-.759 2.096V115h-2.045v-8.966q0-1.116-.724-1.798-.725-.69-1.867-.691-.784 0-1.466.418a3.16 3.16 0 0 0-1.091 1.159q-.409.733-.409 1.696V115zm32.893 5.182q-1.457 0-2.505-.375-1.049-.367-1.748-.972a5.3 5.3 0 0 1-1.099-1.278l1.602-1.125q.273.357.691.818.417.468 1.142.81.732.35 1.917.349 1.585 0 2.617-.767 1.03-.766 1.031-2.403v-2.659h-.17q-.222.358-.631.886-.401.52-1.159.929-.75.4-2.029.4-1.584 0-2.846-.75-1.253-.75-1.986-2.181-.724-1.432-.724-3.478 0-2.011.707-3.502.708-1.5 1.969-2.319 1.261-.826 2.914-.826 1.28 0 2.029.426.759.417 1.159.954.41.529.631.87h.204v-2.08h1.943v13.466q0 1.688-.767 2.744-.758 1.066-2.045 1.56-1.278.503-2.847.503m-.068-7.193q1.21 0 2.046-.554.835-.555 1.269-1.594.435-1.04.435-2.489 0-1.414-.426-2.497-.427-1.082-1.261-1.696-.836-.614-2.063-.614-1.278 0-2.131.648-.843.648-1.269 1.739-.418 1.09-.418 2.42 0 1.363.426 2.412.435 1.04 1.278 1.637.853.588 2.114.588m13.261 2.318q-1.244 0-2.258-.469a3.9 3.9 0 0 1-1.611-1.372q-.596-.903-.596-2.182 0-1.125.443-1.824a3.13 3.13 0 0 1 1.184-1.108 6.2 6.2 0 0 1 1.637-.596 20 20 0 0 1 1.815-.324q1.193-.153 1.935-.23.75-.085 1.091-.282.35-.196.349-.681v-.069q0-1.26-.69-1.96-.682-.699-2.071-.699-1.44 0-2.259.631-.818.63-1.15 1.347l-1.909-.682q.51-1.194 1.363-1.858a5.1 5.1 0 0 1 1.875-.938 7.8 7.8 0 0 1 2.012-.272q.63 0 1.448.153a4.6 4.6 0 0 1 1.594.605q.776.46 1.287 1.389.511.93.511 2.489V115h-2.011v-1.773h-.102q-.205.426-.682.912t-1.27.827q-.792.34-1.935.341m.307-1.807q1.194 0 2.012-.469.827-.468 1.244-1.21a3.1 3.1 0 0 0 .426-1.56v-1.841q-.128.154-.562.282a10 10 0 0 1-.989.213q-.554.086-1.082.153-.52.06-.844.102a7.7 7.7 0 0 0-1.466.333q-.674.222-1.091.673-.41.444-.409 1.21 0 1.049.775 1.586.784.528 1.986.528m9.365 1.5v-13.091h1.943v2.046h.17a3.3 3.3 0 0 1 1.321-1.628q.912-.588 2.191-.588 1.295 0 2.156.588.869.58 1.355 1.628h.136a3.8 3.8 0 0 1 1.509-1.611q1.005-.605 2.412-.605 1.756 0 2.872 1.099 1.116 1.09 1.116 3.401V115h-2.011v-8.761q0-1.45-.793-2.071-.792-.623-1.866-.623-1.38 0-2.139.836-.759.827-.759 2.096V115h-2.045v-8.966q0-1.116-.725-1.798-.725-.69-1.866-.691-.784 0-1.466.418a3.15 3.15 0 0 0-1.091 1.159q-.41.733-.409 1.696V115zm26.348.273q-1.893 0-3.265-.835-1.363-.844-2.105-2.353-.733-1.516-.733-3.528t.733-3.546q.742-1.542 2.063-2.403 1.329-.87 3.102-.869 1.023 0 2.02.341.997.34 1.815 1.108.819.758 1.304 2.011.486 1.252.486 3.085v.852h-10.091v-1.738h8.046q0-1.108-.444-1.978a3.34 3.34 0 0 0-1.244-1.372q-.801-.503-1.892-.503-1.202 0-2.079.597a3.9 3.9 0 0 0-1.339 1.534 4.5 4.5 0 0 0-.468 2.029v1.159q0 1.482.511 2.514.52 1.023 1.44 1.56.92.528 2.14.528.792 0 1.431-.222.648-.23 1.117-.682.468-.46.724-1.142l1.944.546a4.3 4.3 0 0 1-1.032 1.739 5 5 0 0 1-1.79 1.159q-1.065.409-2.394.409m17.752-10.432-1.806.511a3.4 3.4 0 0 0-.503-.878 2.44 2.44 0 0 0-.887-.715q-.562-.282-1.44-.282-1.202 0-2.003.554-.792.546-.792 1.389 0 .75.545 1.185.546.435 1.705.725l1.943.477q1.755.426 2.616 1.304.861.868.861 2.241 0 1.125-.648 2.012-.639.886-1.789 1.397-1.151.512-2.677.512-2.003 0-3.315-.87-1.312-.869-1.662-2.539l1.909-.478q.273 1.057 1.032 1.586.766.528 2.002.528 1.407 0 2.233-.597.836-.605.836-1.448 0-.683-.478-1.143-.477-.468-1.466-.698l-2.181-.512q-1.798-.426-2.643-1.321-.834-.903-.835-2.258 0-1.108.622-1.961.631-.852 1.713-1.338 1.092-.485 2.472-.485 1.944 0 3.051.852 1.117.852 1.585 2.25M594.388 115v-13.091h2.011V115zm1.023-15.273a1.43 1.43 0 0 1-1.015-.4 1.29 1.29 0 0 1-.417-.963q0-.562.417-.963a1.43 1.43 0 0 1 1.015-.401q.588 0 1.005.4.426.402.426.964 0 .563-.426.963-.417.4-1.005.4m6.683 7.398V115h-2.011v-13.091h1.943v2.046h.171a3.74 3.74 0 0 1 1.397-1.603q.938-.613 2.421-.613 1.33 0 2.327.545.996.538 1.551 1.636.554 1.091.554 2.762V115h-2.012v-8.182q0-1.542-.801-2.403-.801-.87-2.199-.87-.963 0-1.721.418-.75.418-1.185 1.219t-.435 1.943m-558.526 19.42h2.114v11.557q0 1.79-.844 3.196-.836 1.398-2.36 2.208-1.527.801-3.58.801-2.055 0-3.58-.801-1.526-.81-2.37-2.208-.834-1.406-.834-3.196v-11.557h2.113v11.387q0 1.278.563 2.275.563.988 1.602 1.56 1.048.563 2.506.563 1.456 0 2.505-.563a3.96 3.96 0 0 0 1.603-1.56q.562-.996.562-2.275zm8.073 9.58V144H49.63v-13.091h1.943v2.046h.17a3.74 3.74 0 0 1 1.398-1.603q.938-.613 2.42-.613 1.33 0 2.328.545.996.538 1.55 1.636.555 1.091.555 2.762V144h-2.012v-8.182q0-1.542-.8-2.403-.802-.87-2.2-.87-.963 0-1.721.418-.75.417-1.185 1.219-.435.801-.435 1.943M63.67 144v-13.091h2.011V144zm1.023-15.273a1.43 1.43 0 0 1-1.014-.4 1.29 1.29 0 0 1-.418-.963q0-.562.418-.963a1.43 1.43 0 0 1 1.014-.401q.588 0 1.005.401.427.4.427.963t-.427.963a1.4 1.4 0 0 1-1.005.4m10.366 2.182v1.705h-6.785v-1.705zm-4.807-3.136h2.011v12.477q0 .852.247 1.278.256.418.648.563.4.136.844.136.332 0 .545-.034l.341-.068.41 1.807a4 4 0 0 1-.572.153 4.2 4.2 0 0 1-.929.085 4.05 4.05 0 0 1-1.67-.366 3.3 3.3 0 0 1-1.347-1.116q-.528-.75-.528-1.893zm9.128 21.136q-.511 0-.912-.085-.4-.076-.554-.154l.511-1.772q.733.187 1.295.136.563-.051.998-.503.442-.442.81-1.44l.374-1.023-4.84-13.159h2.181l3.614 10.432h.136l3.614-10.432h2.182l-5.557 15q-.375 1.014-.93 1.679a3.5 3.5 0 0 1-1.286.997q-.724.324-1.636.324m14.243-7.295-.136.92a19 19 0 0 1-.443 2.08 40 40 0 0 1-.606 2.088 61 61 0 0 1-.52 1.559h-1.534q.111-.544.29-1.44.18-.895.358-2.003.187-1.1.307-2.25l.102-.954zm22.204-15.069h2.114v11.557q0 1.79-.844 3.196-.835 1.398-2.361 2.208-1.525.801-3.579.801t-3.58-.801q-1.526-.81-2.369-2.208-.836-1.406-.836-3.196v-11.557h2.114v11.387q0 1.278.563 2.275a4.04 4.04 0 0 0 1.602 1.56q1.048.563 2.506.563t2.505-.563a3.96 3.96 0 0 0 1.602-1.56q.563-.996.563-2.275zm8.073 9.58V144h-2.011v-13.091h1.943v2.046h.17a3.74 3.74 0 0 1 1.398-1.603q.938-.613 2.421-.613 1.33 0 2.326.545.997.538 1.551 1.636.555 1.091.554 2.762V144h-2.011v-8.182q0-1.542-.801-2.403-.801-.87-2.199-.87-.963 0-1.722.418-.75.417-1.184 1.219-.435.801-.435 1.943M135.927 144v-13.091h1.943v1.977h.136q.358-.971 1.296-1.576a3.8 3.8 0 0 1 2.113-.605q.222 0 .554.008t.503.026v2.045a6 6 0 0 0-.468-.077 5 5 0 0 0-.759-.059q-.954 0-1.705.4a3.03 3.03 0 0 0-1.176 1.091 2.94 2.94 0 0 0-.426 1.577V144zm14.02.273q-1.893 0-3.264-.835-1.364-.844-2.106-2.353-.733-1.517-.733-3.528t.733-3.546q.742-1.542 2.063-2.403 1.329-.87 3.102-.869 1.023 0 2.02.341.998.34 1.815 1.108.82.758 1.304 2.011.486 1.252.486 3.085v.852h-10.091v-1.738h8.046q0-1.108-.443-1.978a3.35 3.35 0 0 0-1.245-1.372q-.801-.503-1.892-.503-1.201 0-2.079.597a3.9 3.9 0 0 0-1.338 1.534 4.5 4.5 0 0 0-.469 2.029v1.159q0 1.482.511 2.514.52 1.023 1.441 1.56.92.528 2.139.528.792 0 1.432-.222.647-.23 1.116-.682.47-.46.724-1.142l1.944.546a4.3 4.3 0 0 1-1.032 1.739 5 5 0 0 1-1.789 1.159q-1.066.408-2.395.409m12.332.034q-1.244 0-2.258-.469a3.9 3.9 0 0 1-1.611-1.372q-.597-.904-.597-2.182 0-1.125.443-1.824a3.14 3.14 0 0 1 1.185-1.108 6.2 6.2 0 0 1 1.636-.596 20 20 0 0 1 1.816-.324 83 83 0 0 1 1.934-.23q.75-.085 1.091-.282.35-.196.35-.681v-.069q0-1.26-.691-1.96-.68-.699-2.071-.699-1.44 0-2.258.631-.818.63-1.151 1.347l-1.909-.682q.512-1.194 1.364-1.858a5.1 5.1 0 0 1 1.875-.938 7.8 7.8 0 0 1 2.011-.272q.631 0 1.449.153a4.7 4.7 0 0 1 1.594.605q.775.46 1.287 1.389.511.93.511 2.489V144h-2.011v-1.773h-.103q-.204.426-.681.912t-1.27.827-1.935.341m.307-1.807q1.193 0 2.011-.469.827-.469 1.245-1.21a3.1 3.1 0 0 0 .426-1.56v-1.841q-.128.154-.563.282-.426.119-.988.213-.554.085-1.083.153-.52.06-.844.102a7.7 7.7 0 0 0-1.465.333q-.674.222-1.091.673-.41.444-.409 1.21 0 1.049.775 1.586.785.528 1.986.528m11.376-15.955V144h-2.012v-17.455zm6.684 15.069-.137.92a18 18 0 0 1-.443 2.08 40 40 0 0 1-.605 2.088q-.315.98-.52 1.559h-1.534l.29-1.44q.178-.895.358-2.003.187-1.1.307-2.25l.102-.954zM203.327 132a6.2 6.2 0 0 0-.742-1.543 4.8 4.8 0 0 0-1.082-1.176 4.5 4.5 0 0 0-1.415-.741 5.6 5.6 0 0 0-1.739-.256 5.2 5.2 0 0 0-2.821.801q-1.269.801-2.019 2.361t-.75 3.827.758 3.826q.758 1.56 2.054 2.361t2.915.801q1.5 0 2.642-.639a4.54 4.54 0 0 0 1.79-1.824q.647-1.183.647-2.787l.648.137h-5.25v-1.875h6.648v1.875q0 2.155-.921 3.75a6.36 6.36 0 0 1-2.522 2.471q-1.603.87-3.682.87-2.319 0-4.074-1.091-1.748-1.092-2.727-3.103-.972-2.01-.972-4.772 0-2.071.554-3.725.562-1.662 1.585-2.829a6.9 6.9 0 0 1 2.421-1.79q1.398-.622 3.076-.622 1.382 0 2.574.417a6.9 6.9 0 0 1 2.139 1.168 6.6 6.6 0 0 1 1.577 1.798q.63 1.04.87 2.31zm10.949 12.273q-1.772 0-3.111-.844-1.329-.844-2.079-2.361-.742-1.517-.742-3.545 0-2.046.742-3.571.75-1.525 2.079-2.37 1.339-.843 3.111-.843t3.103.843q1.338.844 2.079 2.37.75 1.525.75 3.571 0 2.028-.75 3.545-.741 1.517-2.079 2.361-1.33.844-3.103.844m0-1.807q1.347 0 2.216-.69.87-.691 1.287-1.816.418-1.125.418-2.437 0-1.313-.418-2.446-.417-1.134-1.287-1.833t-2.216-.699-2.216.699q-.869.699-1.287 1.833a7 7 0 0 0-.417 2.446q0 1.312.417 2.437.418 1.125 1.287 1.816.87.69 2.216.69m13.946 1.807q-1.636 0-2.89-.827-1.252-.835-1.96-2.352-.707-1.526-.707-3.605 0-2.063.707-3.58.708-1.517 1.969-2.344 1.261-.826 2.915-.826 1.278 0 2.02.426.75.417 1.142.954.4.529.622.87h.17v-6.444h2.012V144h-1.944v-2.011h-.238q-.222.357-.631.903-.41.537-1.168.963-.757.418-2.019.418m.272-1.807q1.21 0 2.046-.631.835-.639 1.27-1.764.434-1.134.434-2.616 0-1.467-.426-2.566-.426-1.107-1.261-1.721-.835-.623-2.063-.623-1.278 0-2.13.657-.844.648-1.27 1.764-.418 1.108-.418 2.489 0 1.397.426 2.539.435 1.134 1.279 1.807.852.665 2.113.665m15.009 1.807q-1.773 0-3.111-.844-1.33-.844-2.08-2.361-.741-1.517-.741-3.545 0-2.046.741-3.571.75-1.525 2.08-2.37 1.338-.843 3.111-.843t3.102.843q1.338.844 2.08 2.37.75 1.525.75 3.571 0 2.028-.75 3.545-.742 1.517-2.08 2.361-1.329.844-3.102.844m0-1.807q1.346 0 2.216-.69.869-.691 1.287-1.816t.417-2.437q0-1.313-.417-2.446-.418-1.134-1.287-1.833-.87-.699-2.216-.699t-2.216.699-1.287 1.833a7 7 0 0 0-.418 2.446q0 1.312.418 2.437.417 1.125 1.287 1.816.869.69 2.216.69m14.695-11.557v1.705h-6.784v-1.705zm-4.807-3.136h2.012v12.477q0 .852.247 1.278.255.418.648.563.4.136.843.136.333 0 .546-.034l.341-.068.409 1.807a4 4 0 0 1-.571.153 4.2 4.2 0 0 1-.929.085 4.1 4.1 0 0 1-1.671-.366 3.3 3.3 0 0 1-1.346-1.116q-.53-.75-.529-1.893zm10.833 13.841-.137.92a18 18 0 0 1-.443 2.08 40 40 0 0 1-.605 2.088q-.315.98-.52 1.559h-1.534q.111-.544.29-1.44.178-.895.358-2.003.187-1.1.307-2.25l.102-.954zm20.294-10.705q-.153-1.296-1.244-2.011-1.09-.717-2.676-.716-1.16 0-2.028.375-.861.375-1.347 1.031a2.48 2.48 0 0 0-.477 1.492q0 .698.332 1.201.34.495.869.827.53.324 1.108.537.58.204 1.066.332l1.772.478q.682.179 1.518.494a7 7 0 0 1 1.61.861q.775.537 1.279 1.38.503.844.503 2.071 0 1.416-.742 2.557-.733 1.143-2.148 1.816-1.406.672-3.417.673-1.876 0-3.247-.605-1.364-.606-2.148-1.688-.776-1.082-.878-2.514h2.182q.085.989.665 1.636.588.64 1.483.955.903.306 1.943.307 1.21 0 2.173-.392.963-.401 1.526-1.108a2.63 2.63 0 0 0 .562-1.671q0-.869-.486-1.415-.486-.545-1.278-.886-.793-.34-1.713-.596l-2.148-.614q-2.046-.588-3.239-1.679-1.193-1.09-1.193-2.855 0-1.466.793-2.557.801-1.1 2.148-1.705 1.355-.613 3.025-.613 1.688 0 3 .605 1.312.597 2.08 1.636.776 1.04.818 2.361zM295.664 144h-5.386v-17.455h5.625q2.54 0 4.346 1.049 1.807 1.04 2.77 2.991.963 1.944.963 4.654 0 2.727-.971 4.696-.972 1.96-2.83 3.017-1.858 1.048-4.517 1.048m-3.273-1.875h3.137q2.164 0 3.588-.835 1.423-.836 2.122-2.378t.699-3.673q0-2.114-.691-3.64-.69-1.533-2.062-2.352-1.372-.827-3.418-.827h-3.375zM307.528 144v-17.455h2.113v15.58h8.114V144zm23.829.307q-1.244 0-2.258-.469a3.9 3.9 0 0 1-1.611-1.372q-.597-.904-.597-2.182 0-1.125.444-1.824a3.13 3.13 0 0 1 1.184-1.108 6.2 6.2 0 0 1 1.637-.596 20 20 0 0 1 1.815-.324q1.192-.153 1.935-.23.75-.085 1.09-.282.35-.196.35-.681v-.069q0-1.26-.69-1.96-.682-.699-2.071-.699-1.442 0-2.259.631-.818.63-1.151 1.347l-1.909-.682q.512-1.194 1.364-1.858a5.1 5.1 0 0 1 1.875-.938 7.8 7.8 0 0 1 2.011-.272q.632 0 1.449.153a4.6 4.6 0 0 1 1.594.605q.776.46 1.287 1.389.511.93.511 2.489V144h-2.011v-1.773h-.102q-.205.426-.682.912t-1.27.827-1.935.341m.307-1.807q1.194 0 2.011-.469.827-.469 1.245-1.21a3.1 3.1 0 0 0 .426-1.56v-1.841q-.128.154-.563.282-.426.119-.988.213-.554.085-1.083.153-.519.06-.843.102a7.7 7.7 0 0 0-1.466.333q-.674.222-1.091.673-.41.444-.409 1.21 0 1.049.775 1.586.784.528 1.986.528m11.376-6.375V144h-2.012v-13.091h1.944v2.046h.17a3.74 3.74 0 0 1 1.398-1.603q.938-.613 2.42-.613 1.33 0 2.327.545.998.538 1.551 1.636.554 1.091.554 2.762V144h-2.011v-8.182q0-1.542-.801-2.403-.802-.87-2.199-.87-.963 0-1.722.418-.75.417-1.185 1.219-.434.801-.434 1.943m16.971 8.148q-1.636 0-2.89-.827-1.252-.835-1.96-2.352-.707-1.526-.707-3.605 0-2.063.707-3.58.708-1.517 1.969-2.344 1.261-.826 2.915-.826 1.278 0 2.02.426.75.417 1.142.954.4.529.622.87h.17v-6.444h2.012V144h-1.944v-2.011h-.238q-.222.357-.631.903-.41.537-1.167.963-.759.418-2.02.418m.272-1.807q1.21 0 2.046-.631.835-.639 1.27-1.764.434-1.134.434-2.616 0-1.467-.426-2.566-.426-1.107-1.261-1.721-.835-.623-2.063-.623-1.278 0-2.13.657-.844.648-1.27 1.764-.418 1.108-.418 2.489 0 1.397.426 2.539.435 1.134 1.279 1.807.852.665 2.113.665m16.713-15.921h2.523l5.932 14.489h.205l5.931-14.489h2.523V144h-1.977v-13.261h-.171L386.508 144h-1.909l-5.455-13.261h-.17V144h-1.978zm26.397 17.728q-1.772 0-3.11-.844-1.33-.844-2.08-2.361-.741-1.517-.741-3.545 0-2.046.741-3.571.75-1.525 2.08-2.37 1.338-.843 3.11-.843 1.773 0 3.103.843 1.338.844 2.079 2.37.75 1.525.75 3.571 0 2.028-.75 3.545-.741 1.517-2.079 2.361-1.33.844-3.103.844m0-1.807q1.347 0 2.216-.69.87-.691 1.287-1.816.418-1.125.418-2.437 0-1.313-.418-2.446-.417-1.134-1.287-1.833t-2.216-.699-2.215.699-1.287 1.833a7 7 0 0 0-.418 2.446q0 1.312.418 2.437.417 1.125 1.287 1.816.869.69 2.215.69m11.014-6.341V144h-2.011v-13.091h1.943v2.046h.17a3.74 3.74 0 0 1 1.398-1.603q.938-.613 2.42-.613 1.33 0 2.327.545.998.538 1.551 1.636.554 1.091.554 2.762V144h-2.011v-8.182q0-1.542-.801-2.403-.801-.87-2.199-.87-.963 0-1.722.418a3 3 0 0 0-1.184 1.219q-.435.801-.435 1.943m17.346 8.148q-1.773 0-3.111-.844-1.33-.844-2.08-2.361-.741-1.517-.741-3.545 0-2.046.741-3.571.75-1.525 2.08-2.37 1.338-.843 3.111-.843t3.102.843q1.338.844 2.08 2.37.75 1.525.75 3.571 0 2.028-.75 3.545-.742 1.517-2.08 2.361-1.329.844-3.102.844m0-1.807q1.346 0 2.216-.69.868-.691 1.287-1.816.417-1.125.417-2.437 0-1.313-.417-2.446-.418-1.134-1.287-1.833-.87-.699-2.216-.699t-2.216.699-1.287 1.833a7 7 0 0 0-.418 2.446q0 1.312.418 2.437.417 1.125 1.287 1.816.869.69 2.216.69M452.96 132a6.2 6.2 0 0 0-.742-1.543 4.8 4.8 0 0 0-1.082-1.176 4.5 4.5 0 0 0-1.415-.741 5.6 5.6 0 0 0-1.739-.256 5.2 5.2 0 0 0-2.821.801q-1.27.801-2.02 2.361t-.75 3.827.759 3.826q.759 1.56 2.054 2.361t2.915.801q1.5 0 2.642-.639a4.53 4.53 0 0 0 1.789-1.824q.648-1.183.648-2.787l.648.137h-5.25v-1.875h6.648v1.875q0 2.155-.921 3.75a6.36 6.36 0 0 1-2.523 2.471q-1.602.87-3.681.87-2.319 0-4.074-1.091-1.747-1.092-2.728-3.103-.97-2.01-.971-4.772 0-2.071.554-3.725.562-1.662 1.585-2.829a6.9 6.9 0 0 1 2.421-1.79q1.397-.622 3.076-.622 1.382 0 2.574.417a6.9 6.9 0 0 1 2.139 1.168 6.6 6.6 0 0 1 1.577 1.798q.63 1.04.869 2.31zm9.483 12.307q-1.244 0-2.258-.469a3.9 3.9 0 0 1-1.611-1.372q-.597-.904-.597-2.182 0-1.125.443-1.824a3.14 3.14 0 0 1 1.185-1.108 6.2 6.2 0 0 1 1.636-.596 20 20 0 0 1 1.816-.324 83 83 0 0 1 1.934-.23q.75-.085 1.091-.282.35-.196.35-.681v-.069q0-1.26-.691-1.96-.68-.699-2.071-.699-1.44 0-2.258.631-.818.63-1.151 1.347l-1.909-.682q.512-1.194 1.364-1.858a5.1 5.1 0 0 1 1.875-.938 7.8 7.8 0 0 1 2.011-.272q.632 0 1.449.153a4.6 4.6 0 0 1 1.594.605q.776.46 1.287 1.389.511.93.511 2.489V144h-2.011v-1.773h-.102q-.205.426-.682.912t-1.27.827-1.935.341m.307-1.807q1.193 0 2.011-.469.827-.469 1.245-1.21a3.1 3.1 0 0 0 .426-1.56v-1.841q-.128.154-.563.282-.426.119-.988.213-.554.085-1.083.153-.52.06-.843.102a7.7 7.7 0 0 0-1.466.333q-.674.222-1.091.673-.41.444-.409 1.21 0 1.049.775 1.586.784.528 1.986.528m9.364 1.5v-13.091h1.944v2.046h.17a3.3 3.3 0 0 1 1.321-1.628q.912-.588 2.19-.588 1.296 0 2.157.588.869.58 1.355 1.628h.136a3.8 3.8 0 0 1 1.509-1.611q1.005-.606 2.412-.605 1.755 0 2.872 1.099 1.116 1.09 1.116 3.401V144h-2.011v-8.761q0-1.45-.793-2.071-.792-.623-1.866-.623-1.381 0-2.139.836-.759.827-.759 2.096V144h-2.045v-8.966q0-1.116-.725-1.798-.725-.69-1.866-.691a2.76 2.76 0 0 0-1.466.418 3.15 3.15 0 0 0-1.091 1.159q-.41.733-.409 1.696V144zm26.348.273q-1.892 0-3.264-.835-1.364-.844-2.105-2.353-.733-1.517-.733-3.528t.733-3.546q.741-1.542 2.063-2.403 1.329-.87 3.102-.869 1.023 0 2.02.341.997.34 1.815 1.108.818.758 1.304 2.011.486 1.252.486 3.085v.852h-10.091v-1.738h8.045q0-1.108-.443-1.978a3.35 3.35 0 0 0-1.244-1.372q-.801-.503-1.892-.503-1.202 0-2.08.597a3.93 3.93 0 0 0-1.338 1.534 4.5 4.5 0 0 0-.469 2.029v1.159q0 1.482.512 2.514.52 1.023 1.44 1.56.921.528 2.139.528.793 0 1.432-.222.648-.23 1.117-.682.469-.46.724-1.142l1.943.546a4.3 4.3 0 0 1-1.031 1.739q-.725.74-1.79 1.159-1.065.408-2.395.409m9.946-.137q-.63 0-1.082-.451a1.48 1.48 0 0 1-.452-1.083q0-.63.452-1.082a1.48 1.48 0 0 1 1.082-.452q.631 0 1.083.452t.451 1.082q0 .418-.213.767a1.6 1.6 0 0 1-.554.563 1.46 1.46 0 0 1-.767.204"/><path fill="#000" fill-opacity=".4" d="M650.421 157.595H620v162.246h30.421z"/><path fill="#fff" d="M649.421 153.539H621a1 1 0 0 0-1 1v160.245a1 1 0 0 0 1 1h28.421a1 1 0 0 0 1-1V154.539a1 1 0 0 0-1-1"/><path fill="#000" fill-opacity=".4" d="M685.912 157.595h-30.421v162.246h30.421z"/><path fill="#fff" d="M685.912 153.539h-30.421v162.245h30.421z"/><path fill="#000" fill-opacity=".4" d="M721.403 157.595h-30.421v162.246h30.421z"/><path fill="#fff" d="M721.403 153.539h-30.421v162.245h30.421z"/><path fill="#000" fill-opacity=".4" d="M756.895 157.595h-30.421v162.246h30.421z"/><path fill="#fff" d="M756.895 153.539h-30.421v162.245h30.421z"/><path fill="#000" fill-opacity=".4" d="M792.386 157.595h-30.421v162.246h30.421z"/><path fill="#fff" d="M792.386 153.539h-30.421v162.245h30.421z"/><path fill="#000" fill-opacity=".4" d="M827.877 157.595h-30.421v162.246h30.421z"/><path fill="#fff" d="M827.877 153.539h-30.421v162.245h30.421z"/><path fill="#000" fill-opacity=".4" d="M863.368 157.595h-30.421v162.246h30.421z"/><path fill="#fff" d="M863.368 153.539h-30.421v162.245h30.421z"/><path fill="#000" fill-opacity=".4" d="M898.859 157.595h-30.421v162.246h30.421z"/><path fill="#fff" d="M898.859 153.539h-30.421v162.245h30.421z"/><path fill="#000" fill-opacity=".4" d="M934.35 157.595h-30.421v162.246h30.421z"/><path fill="#fff" d="M934.35 153.539h-30.421v162.245h30.421z"/><path fill="#000" fill-opacity=".4" d="M969.841 157.595H939.42v162.246h30.421z"/><path fill="#fff" d="M969.841 153.539H939.42v162.245h30.421z"/><path fill="#000" fill-opacity=".4" d="M663.096 157.595h-20.28v111.544h20.28z"/><path fill="#000" d="M663.096 153.539h-20.28v111.544h20.28z"/><path fill="#000" fill-opacity=".4" d="M698.588 157.595h-20.281v111.544h20.281z"/><path fill="#000" d="M698.588 153.539h-20.281v111.544h20.281z"/><path fill="#000" fill-opacity=".4" d="M769.57 157.595h-20.281v111.544h20.281z"/><path fill="#000" d="M769.57 153.539h-20.281v111.544h20.281z"/><path fill="#000" fill-opacity=".4" d="M805.061 157.595H784.78v111.544h20.281z"/><path fill="#000" d="M805.061 153.539H784.78v111.544h20.281z"/><path fill="#000" fill-opacity=".4" d="M840.552 157.595h-20.28v111.544h20.28z"/><path fill="#000" d="M840.552 153.539h-20.28v111.544h20.28z"/><path fill="#000" fill-opacity=".4" d="M911.535 157.595h-20.281v111.544h20.281z"/><path fill="#000" d="M911.535 153.539h-20.281v111.544h20.281z"/><path fill="#000" fill-opacity=".4" d="M947.026 157.595h-20.281v111.544h20.281z"/><path fill="#000" d="M947.026 153.539h-20.281v111.544h20.281z"/><path fill="#fff" d="M513 274.54v-10.925a23.6 23.6 0 0 0-14.379-21.734 23.61 23.61 0 0 0-25.625 4.748A23.599 23.599 0 0 0 433 263.615v32.774A23.637 23.637 0 0 0 456.615 320h32.779A23.64 23.64 0 0 0 513 296.389v-15.877h-47.229v14.456h32.779v1.421a9.175 9.175 0 0 1-9.156 9.155h-32.779a9.18 9.18 0 0 1-9.165-9.155v-32.774a9.15 9.15 0 0 1 2.579-6.664 9.15 9.15 0 0 1 6.581-2.786 9.17 9.17 0 0 1 6.581 2.786 9.155 9.155 0 0 1 2.58 6.664v10.925h14.458v-10.925a9.15 9.15 0 0 1 2.58-6.664 9.15 9.15 0 0 1 6.581-2.786 9.17 9.17 0 0 1 6.581 2.786 9.16 9.16 0 0 1 2.579 6.664v10.925z"/><path fill="#fff" fill-rule="evenodd" d="M406.012 257.701c.847.488 1.616 1.333 2.174 2.299.559.966.905 2.055.905 3.032v33.936c0 .977-.347 2.066-.905 3.032s-1.327 1.811-2.174 2.299l-29.388 16.968c-1.693.977-4.464.977-6.157 0l-29.389-16.968c-.846-.488-1.616-1.332-2.174-2.299l14.123-8.154c4.103 7.079 11.764 11.851 20.518 11.851 8.432 0 16.296-4.537 20.522-11.842l-10.255-5.934a11.9 11.9 0 0 1-10.267 5.928c-4.377 0-8.207-2.386-10.259-5.926L373.545 280l-10.259 5.923a11.8 11.8 0 0 1-1.589-5.923c0-6.533 5.315-11.848 11.848-11.848 4.217 0 8.151 2.271 10.266 5.927l10.256-5.935c-4.227-7.304-12.09-11.841-20.522-11.841-13.066 0-23.697 10.631-23.697 23.697 0 4.312 1.158 8.359 3.179 11.846L338.904 300c-.558-.966-.904-2.055-.904-3.032v-33.936c0-1.955 1.385-4.354 3.078-5.331l29.389-16.968c1.693-.977 4.464-.977 6.157 0zm-8.77 20.983h-2.633v-2.633h-2.633v2.633h-2.633v2.632h2.633v2.634h2.633v-2.634h2.633zm7.241 0h2.633v2.632h-2.633v2.634h-2.633v-2.634h-2.633v-2.632h2.633v-2.633h2.633z" clip-rule="evenodd"/><path fill="#fff" d="M262.789 239c-3.876.862-7.709 2.061-11.303 3.87.082 3.174.287 6.215.703 9.303-1.396.894-2.863 1.662-4.166 2.709-1.325 1.019-2.678 1.994-3.877 3.185a75 75 0 0 0-7.545-4.389c-2.816 3.031-5.45 6.303-7.601 9.963 1.691 2.654 3.504 5.321 5.183 7.401v22.467q.062 0 .123.005l13.774 1.329c.721.069 1.287.65 1.337 1.373l.425 6.08 12.014.858.828-5.612a1.48 1.48 0 0 1 1.467-1.267h14.532c.735 0 1.36.539 1.467 1.267l.827 5.612 12.016-.858.424-6.08a1.48 1.48 0 0 1 1.337-1.373l13.768-1.329q.061-.005.123-.005v-1.793l.006-.001v-20.673c1.939-2.442 3.776-5.135 5.183-7.401-2.151-3.66-4.785-6.932-7.602-9.963a75 75 0 0 0-7.545 4.389c-1.199-1.191-2.549-2.166-3.876-3.185-1.303-1.047-2.772-1.815-4.165-2.709.414-3.088.62-6.129.702-9.303-3.594-1.809-7.427-3.008-11.304-3.87-1.548 2.602-2.964 5.419-4.197 8.174-1.462-.245-2.931-.335-4.401-.353v-.002l-.029.002-.028-.002v.002c-1.473.018-2.941.108-4.403.353-1.233-2.755-2.647-5.572-4.197-8.174m-10.897 32.866a8.3 8.3 0 1 1 0 16.595 8.3 8.3 0 0 1 0-16.595m39.051 0a8.297 8.297 0 0 1 8.298 8.296 8.3 8.3 0 1 1-8.298-8.296m-19.527 4.855c1.476 0 2.675 1.089 2.675 2.428v7.641c0 1.341-1.199 2.429-2.675 2.429s-2.672-1.088-2.672-2.429v-7.641c0-1.339 1.196-2.428 2.672-2.428"/><path fill="#fff" d="m296.288 297.675-.426 6.112a1.484 1.484 0 0 1-1.374 1.376l-14.672 1.047a1.482 1.482 0 0 1-1.572-1.263l-.842-5.706h-11.971l-.841 5.706a1.48 1.48 0 0 1-1.573 1.263l-14.671-1.047a1.48 1.48 0 0 1-1.374-1.376l-.427-6.112-12.385-1.194c.006 1.331.023 2.789.023 3.079 0 13.081 16.593 19.368 37.209 19.44h.05c20.616-.072 37.203-6.359 37.203-19.44 0-.295.018-1.747.024-3.079zM258.195 280.655a5.507 5.507 0 0 1-5.51 5.507 5.508 5.508 0 1 1 0-11.017 5.51 5.51 0 0 1 5.51 5.51M284.639 280.655a5.506 5.506 0 0 0 5.507 5.507 5.509 5.509 0 1 0-5.507-5.507"/><path fill="#fff" fill-rule="evenodd" d="M125 280c0-22.092 17.908-40 40-40s40 17.908 40 40-17.908 40-40 40-40-17.908-40-40m46.308 17.822 3.925 4.416c9.78-4.618 12.847-13.153 13.54-16.478-3.578 3.663-7.533 7.375-10.196 4.805 0 0-.145-13.712-.145-19.337 0-7.565 7.17-13.2 7.17-13.2-3.942.702-8.679 2.107-13.704 7.04q-.681.675-1.291 1.417c-2.155-1.65-4.947-1.152-4.947-1.152 1.51.827 3.018 3.242 3.018 5.24v19.637s-3.29 2.892-5.825 2.892a3.57 3.57 0 0 1-2.933-1.482 4 4 0 0 1-.495-.855V266.5c-.75.62-3.283 1.13-3.283-3.075 0-2.613 1.886-5.725 5.235-7.635a24.7 24.7 0 0 0-12.432 5.735 24.353 24.353 0 0 0-8.425 18.657s2.453-7.657 5.52-8.362a2.97 2.97 0 0 1 2.606.549 2.97 2.97 0 0 1 1.114 2.418v17.983c0 1.822-1.175 2.22-2.26 2.2a9.4 9.4 0 0 1-2.167-.41 24.45 24.45 0 0 0 19.345 9.925z" clip-rule="evenodd"/><path fill="#fff" d="m68.664 254.313 12.716 7.31c.458.256.474.968 0 1.225l-15.11 8.692a1.41 1.41 0 0 1-1.42 0l-15.11-8.692c-.466-.249-.474-.977 0-1.225l12.707-7.31V240L30 258.659v37.318l12.442-7.152v-14.62c-.008-.521.607-.894 1.064-.612l15.11 8.692c.457.265.715.737.715 1.225v17.376c.008.522-.607.894-1.064.612l-12.717-7.31-12.442 7.153L65.556 320l32.447-18.659-12.442-7.153-12.716 7.31c-.45.273-1.08-.082-1.064-.612V283.51c0-.522.29-.985.715-1.225l15.11-8.692c.448-.273 1.08.074 1.063.612v14.62l12.442 7.152v-37.318L68.664 240z"/></g><defs><linearGradient id="b" x1="460.5" x2="669.54" y1="33.5" y2="524.843" gradientUnits="userSpaceOnUse"><stop stop-color="#081457"/><stop offset="1" stop-color="#A800A5"/></linearGradient><clipPath id="a"><rect width="1000" height="350" fill="#fff" rx="10"/></clipPath></defs></svg>